<?xml version="1.0" standalone="no"?>
<!DOCTYPE svg PUBLIC "-//W3C//DTD SVG 20010904//EN"
 "http://www.w3.org/TR/2001/REC-SVG-20010904/DTD/svg10.dtd">
<svg version="1.0" xmlns="http://www.w3.org/2000/svg"
 width="1200.000000pt" height="1200.000000pt" viewBox="0 0 1200.000000 1200.000000"
 preserveAspectRatio="xMidYMid meet">
<metadata>
Created by potrace 1.16, written by Peter Selinger 2001-2019
</metadata>
<g transform="translate(0.000000,1200.000000) scale(0.100000,-0.100000)"
fill="#000000" stroke="none">
<path d="M5380 10645 c-19 -7 -44 -11 -55 -9 -11 3 -69 -14 -130 -37 -60 -23
-117 -43 -125 -44 -8 -1 -37 -13 -65 -26 -27 -14 -57 -24 -66 -22 -9 2 -22 -3
-29 -12 -7 -8 -21 -15 -31 -15 -11 0 -16 -5 -13 -14 3 -9 -10 -20 -40 -32 -31
-13 -46 -25 -46 -37 0 -10 -11 -29 -25 -43 -14 -14 -25 -28 -25 -32 0 -4 -8
-16 -17 -27 -12 -15 -14 -16 -10 -3 14 40 -22 3 -58 -60 -21 -37 -49 -81 -62
-98 -13 -17 -23 -35 -23 -40 0 -5 -9 -20 -20 -34 -11 -14 -20 -32 -20 -40 0
-22 -107 -240 -117 -240 -5 0 -28 -26 -50 -57 -23 -32 -85 -105 -137 -161 -53
-57 -96 -110 -96 -119 0 -8 -4 -12 -9 -9 -5 3 -24 -13 -42 -36 -19 -23 -58
-67 -87 -97 -28 -31 -66 -76 -83 -101 -26 -37 -18 -32 45 32 42 43 76 75 76
71 0 -4 20 13 45 37 25 24 45 51 45 60 0 9 67 84 149 166 143 145 152 156 233
300 47 82 94 163 104 181 20 34 54 51 54 28 0 -25 54 -117 100 -172 14 -17 12
-62 -4 -116 -8 -26 -10 -47 -6 -47 5 0 15 30 24 66 16 71 40 109 55 86 13 -21
67 49 85 111 20 68 20 83 1 91 -8 3 -15 12 -15 19 0 8 7 20 15 27 8 7 15 21
15 31 0 10 9 24 20 32 20 14 44 62 49 96 0 5 8 16 16 24 18 18 3 83 -26 110
-10 10 -19 21 -19 26 0 9 192 65 359 105 l104 25 116 -24 c239 -50 291 -55
388 -38 132 23 223 13 357 -39 26 -10 27 -13 10 -19 -10 -3 -23 -3 -29 1 -55
40 -269 29 -325 -17 -9 -7 -47 -26 -84 -43 -44 -20 -70 -38 -73 -51 -3 -11
-24 -29 -47 -41 -22 -11 -59 -35 -81 -53 -89 -72 -139 -80 -234 -41 -73 31
-97 26 -99 -20 -1 -19 -4 -39 -7 -44 -3 -5 -1 -19 6 -31 10 -19 7 -25 -20 -46
-18 -15 -31 -34 -31 -47 0 -13 -5 -37 -11 -54 -6 -17 -9 -41 -7 -54 3 -17 9
-9 22 34 17 50 21 55 38 45 10 -7 18 -18 18 -25 0 -7 16 -22 35 -34 26 -15 34
-25 30 -38 -3 -11 1 -24 10 -32 9 -7 21 -18 28 -24 6 -6 19 -9 28 -7 9 3 20 0
24 -7 5 -8 11 -8 21 1 8 6 17 9 21 5 7 -6 -13 -75 -34 -118 -23 -48 16 -35 74
25 55 55 69 81 108 206 15 45 32 82 41 85 9 3 14 13 10 21 -3 8 1 29 8 47 10
22 11 38 4 54 -7 15 -6 29 6 52 9 17 16 38 16 48 0 10 5 14 14 11 8 -3 29 -2
45 3 35 10 38 5 14 -22 -11 -12 -12 -18 -4 -18 8 0 5 -13 -10 -37 l-23 -36 23
6 c18 4 21 2 16 -11 -4 -9 -14 -36 -22 -59 -8 -24 -18 -43 -21 -43 -22 0 -46
-99 -72 -307 -24 -186 -24 -231 -6 -338 36 -200 25 -415 -39 -795 -14 -80 -25
-152 -24 -160 1 -35 18 35 44 180 16 85 32 160 37 167 9 11 208 88 211 81 4
-8 -9 -527 -13 -530 -13 -10 -364 -118 -368 -113 -3 3 14 53 37 111 23 58 41
110 39 116 -2 6 -21 -31 -43 -83 -21 -52 -61 -140 -88 -197 -42 -88 -59 -111
-116 -162 -36 -32 -77 -79 -89 -104 l-24 -44 41 -61 c23 -33 45 -63 51 -66 17
-10 1 -25 -26 -25 -21 0 -30 10 -54 64 -34 74 -46 85 -68 62 -16 -16 -16 -17
0 -11 13 5 24 -7 48 -55 17 -34 30 -63 28 -65 -2 -2 -30 -8 -63 -14 -53 -10
-63 -9 -84 7 -39 29 -36 39 14 47 32 4 51 2 62 -7 14 -11 15 -10 8 12 -9 32
-25 51 -35 45 -20 -12 6 39 39 77 69 80 87 117 25 51 -95 -99 -103 -109 -93
-124 5 -8 9 -17 9 -20 0 -12 -80 -28 -86 -17 -3 5 -20 6 -36 3 -18 -4 -28 -3
-25 2 3 5 -4 9 -15 8 -12 -1 -24 -7 -26 -13 -2 -7 -9 -12 -16 -12 -7 0 -28 -8
-47 -17 -26 -14 -61 -18 -147 -20 -63 0 -116 -4 -119 -7 -4 -3 5 -6 18 -6 13
0 19 -4 13 -8 -6 -4 -13 -15 -17 -24 -5 -15 -19 -18 -78 -18 l-72 0 24 27 c22
24 19 23 -23 -7 -27 -18 -46 -35 -44 -37 2 -3 86 -11 186 -18 100 -7 183 -15
185 -17 9 -11 13 -68 4 -68 -5 0 -9 -8 -7 -17 3 -15 -4 -18 -39 -16 -38 1 -44
-2 -83 -48 l-42 -50 7 -92 c5 -67 12 -98 25 -114 10 -13 22 -23 26 -23 4 0 19
-11 34 -25 l25 -24 215 24 c210 24 605 92 545 94 -17 1 -98 -10 -180 -23 -83
-14 -202 -30 -265 -36 -63 -7 -125 -16 -138 -21 -14 -5 -58 -12 -99 -16 -65
-5 -75 -4 -88 13 -12 17 -11 21 13 41 l27 22 -36 -6 c-63 -9 -75 5 -83 97 -7
73 -5 84 15 117 20 32 23 34 30 17 7 -18 8 -18 15 4 5 18 14 22 45 22 21 0 41
5 44 10 11 18 23 1 17 -25 -3 -16 -11 -25 -23 -25 -23 0 -24 -7 -4 -26 24 -24
16 -114 -10 -114 -12 0 -25 62 -25 121 0 15 -5 31 -11 35 -9 5 -10 -12 -5 -62
11 -112 17 -137 29 -125 6 6 21 11 33 11 12 0 27 7 34 15 11 13 15 12 37 -5
14 -11 30 -20 35 -20 5 0 29 -14 52 -30 l42 -30 57 31 c31 17 57 34 57 38 0 4
-6 15 -13 25 -13 17 -15 17 -55 -3 -39 -20 -43 -20 -49 -5 -4 12 3 25 21 41
20 17 23 23 10 23 -12 0 -15 6 -10 25 18 71 19 72 113 89 111 20 112 20 140
-6 17 -16 26 -19 35 -10 8 8 8 15 -2 26 -10 13 -10 17 1 20 19 7 227 46 243
46 16 0 20 -130 7 -211 -4 -27 -4 -46 0 -43 17 10 30 77 32 179 l3 108 30 15
c16 8 24 17 17 19 -7 2 -22 -1 -34 -8 -18 -9 -25 -9 -34 5 -18 24 -26 19 -15
-9 5 -14 8 -25 7 -26 -1 0 -67 -13 -146 -28 -135 -26 -144 -27 -148 -10 -3 10
-21 26 -41 35 l-37 18 30 8 c17 4 125 26 240 48 116 22 219 42 229 45 14 3 16
1 7 -8 -6 -6 -11 -25 -11 -43 0 -17 -7 -37 -15 -44 -13 -11 -13 -15 -3 -21 11
-7 13 -514 13 -2746 1 -2606 -1 -3021 -10 -3011 -8 8 -26 152 -30 237 -3 46
-6 84 -7 85 -2 1 -25 12 -53 24 -65 30 -307 184 -612 390 -95 64 -102 67 -58
27 92 -83 469 -330 645 -421 30 -16 54 -31 54 -34 -1 -3 -5 -36 -9 -73 -7 -59
-10 -67 -26 -62 -16 5 -17 3 -8 -27 11 -41 11 -99 0 -117 -8 -12 -94 53 -400
298 -214 173 -393 321 -396 329 -3 8 -1 19 6 22 8 6 8 9 -1 12 -21 7 -51 158
-56 283 -5 108 -4 118 10 101 10 -12 23 -17 41 -14 22 5 25 2 20 -16 -3 -11 6
2 20 29 14 28 28 65 31 83 7 38 17 41 32 8 16 -35 46 -50 63 -30 15 18 14 227
-3 323 -9 54 -15 66 -39 80 -35 19 -35 20 -49 255 -9 138 -9 180 0 186 9 6 9
9 0 12 -7 2 -11 10 -9 17 3 8 24 -17 46 -56 101 -169 245 -241 368 -184 164
76 299 393 349 821 26 223 16 656 -20 870 -31 182 -100 404 -170 546 -155 315
-371 384 -532 170 -22 -28 -48 -69 -59 -90 l-20 -39 -6 324 c-9 448 -23 476
-25 52 -2 -225 1 -344 8 -348 5 -3 10 -15 10 -27 0 -21 -48 -167 -60 -181 -4
-4 -4 258 -2 582 4 585 -2 857 -19 830 -5 -8 -9 -356 -9 -775 0 -634 -2 -766
-14 -790 -28 -57 -73 -506 -63 -631 3 -37 12 -129 21 -203 11 -89 13 -136 6
-138 -5 -2 -10 -25 -10 -51 0 -36 5 -53 21 -67 23 -21 23 -15 0 -234 -7 -60
-5 -126 5 -225 27 -277 29 -312 23 -425 -3 -63 -6 -108 -7 -100 -2 13 -3 13
-12 0 -5 -8 -5 -17 -1 -20 10 -6 10 12 10 -387 0 -188 -2 -356 -5 -373 -4 -19
-2 -30 5 -30 16 0 13 -46 -4 -60 -12 -10 -15 -10 -15 4 0 9 6 16 13 17 6 0 1
5 -13 11 -40 18 -46 17 -47 -6 -1 -11 1 -15 4 -8 4 10 8 10 19 1 11 -9 11 -13
-1 -26 -17 -17 -20 -33 -5 -33 6 0 10 7 10 15 0 8 5 15 10 15 6 0 10 -5 10
-12 0 -6 7 -3 15 8 14 18 14 17 15 -13 0 -17 -6 -34 -12 -37 -10 -5 -10 -7 0
-12 6 -3 12 -13 12 -21 0 -9 6 -13 15 -10 14 6 55 -40 55 -61 0 -5 7 -13 16
-16 22 -9 26 -8 19 5 -20 32 499 -377 615 -485 36 -34 97 -83 134 -111 38 -27
82 -62 98 -77 36 -34 44 -35 50 -3 3 13 2 22 -3 20 -11 -7 -59 13 -59 25 0 14
43 13 57 -1 14 -14 244 -13 288 1 17 6 289 30 605 55 316 25 583 47 593 49 14
4 16 2 7 -9 -9 -10 -7 -16 8 -24 11 -6 21 -8 24 -6 3 3 60 9 129 15 128 10
219 28 219 42 0 4 -10 8 -22 8 -12 0 -19 2 -16 5 3 3 85 12 184 20 98 8 229
19 289 25 61 5 216 17 345 26 129 9 244 20 255 24 11 5 87 14 170 20 82 6 155
16 162 22 15 12 18 32 4 24 -8 -5 -21 185 -20 307 0 46 3 59 17 63 29 10 116
56 135 72 16 14 17 72 17 944 0 898 1 928 18 919 15 -8 26 -4 51 20 18 16 40
29 48 29 9 0 52 35 95 78 86 85 126 153 179 311 37 108 54 278 54 526 0 153
-2 180 -15 180 -18 0 -28 26 -29 79 -1 49 -40 216 -50 216 -4 0 -13 18 -20 40
-7 22 -22 56 -34 75 -95 150 -113 173 -141 185 -17 8 -35 19 -41 27 -13 16
-95 45 -95 33 0 -5 15 -16 33 -24 68 -28 174 -180 252 -362 49 -113 59 -147
80 -282 40 -243 32 -402 -31 -651 -15 -61 -40 -123 -71 -179 -49 -86 -128
-184 -167 -204 -14 -7 -11 0 13 25 18 19 31 40 27 45 -3 5 3 21 14 35 45 57
102 216 131 365 l19 97 -5 -70 c-3 -56 -2 -65 6 -45 12 27 20 268 12 337 -6
52 -23 47 -23 -6 0 -21 -2 -40 -5 -43 -3 -3 -7 -43 -9 -89 -6 -116 -33 -271
-62 -349 -46 -123 -153 -320 -173 -320 -3 0 -6 33 -7 73 0 74 -9 128 -23 137
-11 8 -13 103 -2 120 6 8 13 11 16 8 4 -4 18 -3 31 2 22 9 24 7 24 -24 0 -29
3 -33 20 -29 14 4 17 9 11 17 -15 18 -2 58 16 51 11 -3 13 -1 9 10 -3 8 -1 15
4 15 4 0 7 16 5 35 -2 19 0 35 5 35 7 0 16 45 25 123 4 31 2 38 -10 33 -18 -7
-20 10 -2 18 9 4 9 7 0 12 -7 3 -9 15 -4 32 4 15 6 34 4 42 -3 11 -1 11 10 -2
13 -17 15 -16 26 5 10 20 11 20 6 -8 -3 -16 -6 -61 -6 -100 -1 -76 -15 -146
-31 -156 -7 -5 -7 -13 0 -25 5 -10 6 -27 2 -38 -7 -19 -33 -108 -47 -161 -4
-17 -3 -17 12 4 19 25 24 41 60 203 59 261 72 474 39 636 -18 90 -67 266 -83
302 -11 24 -11 24 -5 -5 57 -278 71 -608 26 -623 -9 -3 -12 19 -12 85 0 48 -4
115 -10 148 -11 67 -41 187 -46 182 -2 -2 3 -41 11 -88 17 -97 20 -189 5 -189
-5 0 -10 13 -10 29 0 16 -7 34 -15 41 -13 10 -15 9 -15 -12 0 -21 -4 -25 -25
-23 -19 3 -25 -1 -25 -17 0 -11 -5 -18 -12 -15 -7 2 -12 12 -10 22 2 10 -1 21
-7 24 -9 6 -14 628 -8 926 1 44 -2 152 -6 240 -5 88 -11 214 -14 280 -6 138
-23 180 -24 60 -1 -263 3 -720 7 -727 3 -4 4 -119 4 -256 -1 -136 -2 -343 -2
-460 l1 -214 -22 15 c-12 8 -22 25 -23 38 0 13 -1 197 -3 409 -2 404 -14 486
-25 170 -3 -102 -8 -216 -11 -255 -3 -47 -2 -62 4 -45 6 16 9 -33 10 -142 1
-93 -3 -168 -8 -168 -5 0 -7 -19 -5 -42 3 -24 6 -132 8 -241 l4 -198 -27 -11
c-14 -6 -38 -11 -53 -11 -16 0 -28 -4 -28 -8 0 -20 -32 7 -55 47 -14 24 -30
44 -35 44 -14 0 -99 141 -106 176 -3 19 -14 36 -23 39 -18 5 -21 16 -22 70 0
24 -1 26 -8 11 -7 -19 -8 -18 -14 5 -4 13 -7 34 -7 47 0 12 -4 22 -10 22 -5 0
-10 -12 -10 -27 0 -14 -3 -23 -7 -19 -10 10 -14 119 -4 126 17 11 20 79 5 95
-15 15 -11 55 6 55 10 0 45 91 54 140 5 27 2 24 -13 -16 -25 -69 -40 -94 -53
-94 -6 0 -8 3 -5 7 4 3 3 11 -2 17 -15 17 15 127 57 214 60 123 92 280 91 442
0 47 -4 94 -9 105 -6 13 -9 -16 -8 -83 0 -97 -8 -137 -20 -102 -3 8 -13 -30
-23 -85 -38 -207 -50 -242 -140 -397 -46 -78 -145 -189 -220 -244 -68 -50
-181 -103 -267 -125 -81 -20 -204 -25 -246 -9 -14 5 -49 12 -78 15 -131 14
-341 152 -450 295 -64 84 -142 244 -168 345 -45 179 -43 403 6 573 48 165 122
294 237 410 207 211 489 284 750 195 48 -17 87 -27 87 -23 0 7 -37 22 -125 52
-26 8 -90 13 -185 13 -136 0 -150 -2 -233 -32 -103 -36 -177 -79 -259 -150
-116 -100 -224 -261 -273 -407 -55 -165 -74 -419 -40 -561 9 -38 20 -86 24
-105 4 -19 13 -45 19 -56 6 -12 8 -24 5 -28 -3 -3 -2 -6 4 -6 14 0 33 -46 33
-80 0 -17 4 -30 9 -30 5 0 19 -15 30 -34 23 -36 27 -51 11 -41 -6 3 -7 -1 -3
-10 4 -12 8 -14 13 -4 5 8 15 -2 30 -30 12 -24 19 -45 17 -48 -6 -6 -77 65
-77 77 0 4 -3 10 -8 12 -11 5 -82 128 -82 143 0 8 -4 16 -9 20 -9 5 -21 40
-65 183 -26 84 -31 128 -31 277 1 120 5 154 28 238 58 210 135 348 271 481 45
45 112 99 149 120 37 21 71 44 74 50 10 16 -106 -52 -163 -96 -216 -164 -360
-456 -378 -763 -9 -162 30 -378 89 -496 20 -39 34 -73 32 -76 -7 -7 -85 153
-111 227 -13 36 -29 106 -35 155 -6 50 -14 106 -16 125 -3 20 0 83 5 140 23
254 113 452 283 621 134 131 306 217 484 239 80 10 197 7 248 -7 17 -4 18 -3
7 8 -22 24 -268 17 -367 -9 -464 -125 -756 -633 -660 -1152 19 -104 71 -245
120 -325 14 -22 32 -54 41 -72 8 -17 44 -64 78 -104 58 -67 63 -75 56 -105 -7
-28 -4 -36 15 -48 23 -15 23 -15 20 15 -6 44 17 32 31 -17 8 -27 8 -43 1 -52
-8 -10 -7 -16 3 -22 7 -5 11 -17 7 -30 -3 -12 0 -23 7 -26 7 -3 13 -11 13 -19
0 -8 -4 -12 -9 -9 -4 3 -8 0 -8 -6 0 -6 7 -13 15 -16 8 -4 15 -17 15 -31 0
-16 7 -27 20 -30 11 -3 17 -10 14 -15 -3 -5 -12 -7 -20 -4 -8 3 -14 -1 -14 -9
0 -22 102 29 113 57 6 14 11 18 14 11 7 -18 23 -16 23 3 0 10 6 14 15 10 18
-7 19 5 3 24 -7 8 -4 7 7 -2 19 -15 26 -15 100 3 84 20 146 25 129 10 -5 -4
-34 -13 -65 -19 -65 -12 -206 -65 -235 -87 -11 -8 3 -5 31 7 58 25 143 39 148
24 2 -6 19 -5 48 2 69 19 248 44 314 44 120 1 344 -113 429 -217 45 -55 24
-70 -25 -18 -55 57 -175 131 -263 160 -74 24 -95 27 -236 27 -180 1 -237 -11
-368 -77 -114 -56 -114 -66 0 -13 135 63 217 81 368 80 85 0 145 -6 190 -18
131 -36 300 -139 273 -167 -9 -9 -20 -5 -48 19 -42 37 -98 67 -174 93 -86 30
-84 22 4 -14 93 -38 154 -77 218 -142 39 -40 44 -50 34 -66 -10 -17 -13 -17
-29 -2 -22 20 -15 30 9 13 10 -7 -9 13 -42 44 -63 59 -143 106 -182 106 -13 0
-23 5 -23 11 0 7 -9 9 -23 5 -13 -3 -59 1 -101 9 -43 8 -112 14 -154 13 -76
-1 -75 -1 28 -8 120 -8 154 -17 262 -62 68 -29 195 -115 184 -125 -2 -2 -30
12 -62 31 -59 34 -94 47 -233 87 -119 33 -269 24 -368 -23 -23 -11 -47 -17
-52 -14 -5 3 -14 -1 -21 -9 -7 -8 -16 -15 -21 -15 -9 0 -132 -70 -139 -80 -3
-4 -13 -11 -22 -16 -32 -18 -168 -157 -168 -172 0 -8 30 16 68 55 123 127 243
204 374 241 92 25 316 22 419 -6 115 -31 206 -79 274 -145 32 -31 62 -57 65
-57 11 0 60 -56 60 -68 0 -7 4 -12 9 -12 14 0 95 -126 122 -189 13 -30 37
-107 55 -170 18 -64 33 -110 33 -103 1 7 5 11 9 8 25 -15 -75 282 -105 312 -7
7 -13 20 -13 29 0 8 -31 60 -70 114 -38 55 -70 108 -70 118 0 26 -21 83 -36
102 -8 8 -14 20 -14 25 0 5 7 0 15 -10 8 -11 25 -21 37 -23 18 -3 20 -1 10 9
-14 14 -16 32 -3 23 6 -3 15 3 20 14 8 14 8 20 -1 23 -9 3 -8 10 5 23 10 9 16
24 13 31 -3 8 0 14 6 14 6 0 8 3 5 7 -4 3 -18 -6 -32 -21 l-25 -27 -64 63
c-102 101 -216 158 -383 193 -73 15 -91 25 -47 25 16 0 44 4 62 9 24 7 40 6
60 -5 15 -7 38 -14 52 -14 49 0 221 -126 276 -202 28 -37 39 -46 49 -38 9 7
10 21 5 45 -9 42 -6 44 13 9 l13 -25 29 40 c15 23 31 41 34 41 4 0 13 -17 21
-37 15 -43 133 -234 155 -253 8 -7 15 -19 15 -26 0 -8 9 -23 21 -35 26 -26
109 -186 109 -210 0 -10 6 -24 13 -31 7 -7 17 -32 23 -56 11 -40 10 -44 -10
-52 -21 -9 -21 -9 2 -9 26 -1 29 -16 5 -30 -16 -9 -16 -10 5 -11 18 0 22 -5
22 -35 0 -41 -26 -75 -57 -75 -13 0 -23 -4 -23 -9 0 -5 19 -7 42 -4 29 4 39 3
34 -5 -4 -7 -19 -13 -34 -13 -20 -1 -22 -2 -7 -6 46 -10 47 -11 30 -44 -9 -17
-13 -29 -8 -26 5 3 15 -3 22 -14 11 -19 10 -21 -26 -19 -21 1 -44 2 -50 1 -20
-2 -15 -28 7 -44 12 -8 18 -21 15 -29 -7 -18 19 -48 41 -48 8 0 14 -4 14 -10
0 -11 -24 -13 -58 -3 -20 5 -23 11 -20 35 6 35 -2 40 -24 17 -14 -15 -15 -21
-4 -32 11 -11 10 -17 -4 -35 -10 -12 -23 -22 -28 -22 -23 0 -18 -29 10 -54 36
-31 42 -32 68 -6 33 33 26 53 -15 48 -28 -3 -35 -1 -33 11 4 19 20 19 71 2
l39 -13 -7 -47 c-9 -57 -11 -61 -38 -62 l-22 0 23 -9 c12 -5 22 -12 22 -16 0
-6 -28 -1 -72 12 -10 3 -18 1 -18 -4 0 -5 15 -13 34 -16 39 -8 45 -18 38 -66
-4 -29 -6 -32 -13 -15 -7 18 -8 19 -8 1 -1 -14 -7 -17 -26 -14 -14 3 -23 1
-22 -6 3 -15 49 -38 57 -29 20 22 70 248 70 313 0 5 12 22 27 37 l26 28 -7
-25 c-4 -14 -11 -77 -16 -140 -23 -281 -93 -478 -230 -648 -25 -31 -65 -85
-88 -119 -48 -71 -69 -89 -59 -52 4 13 7 32 7 41 0 10 8 26 18 35 9 10 17 24
18 31 1 6 2 21 3 32 0 11 9 24 19 27 9 4 23 15 30 25 7 10 17 16 21 14 15 -10
52 54 53 92 0 20 13 64 28 97 35 76 60 153 59 179 0 16 -3 14 -11 -9 -5 -16
-12 -37 -15 -45 -9 -21 -10 -28 -12 -46 -1 -11 -7 -15 -19 -12 -10 3 -27 -1
-37 -8 -29 -22 -32 -18 -31 46 1 59 -4 70 -39 84 -16 6 18 60 40 64 28 6 52
29 64 63 15 44 -6 45 -28 1 -14 -28 -28 -41 -47 -45 -42 -8 -57 2 -50 32 17
72 15 99 -3 36 -10 -38 -24 -83 -30 -99 -7 -16 -9 -31 -7 -34 3 -2 8 7 12 22
7 28 24 36 24 11 0 -13 -12 -39 -28 -65 -2 -2 -6 1 -11 8 -4 7 -23 -18 -50
-69 -77 -144 -197 -275 -317 -345 -43 -25 -63 -45 -25 -24 28 15 34 13 28 -10
-3 -11 -1 -18 4 -14 5 3 9 15 9 27 0 20 19 37 88 80 10 6 9 0 -3 -23 -9 -17
-14 -39 -10 -48 3 -9 3 -13 -1 -9 -4 4 -12 -3 -19 -16 -6 -12 -17 -21 -25 -19
-8 2 -10 -3 -5 -15 3 -10 7 -22 8 -28 1 -5 10 -13 19 -17 11 -4 15 -14 11 -27
-8 -33 31 -27 47 7 l14 27 4 -27 c2 -18 8 -25 17 -22 10 4 12 0 8 -16 -4 -13
-8 -17 -13 -11 -4 7 -11 2 -18 -13 -21 -47 -208 -154 -335 -190 -48 -14 -91
-25 -95 -24 -4 2 -19 -6 -34 -15 -22 -15 -48 -18 -155 -18 -142 0 -182 6 -302
51 -92 33 -95 34 -86 20 3 -6 -1 -7 -9 -4 -9 3 -14 9 -12 13 2 3 -9 7 -25 8
-24 2 -27 0 -20 -15 5 -9 12 -25 15 -34 3 -10 11 -18 17 -18 8 0 8 4 -1 15
-22 27 -3 28 35 2 25 -17 32 -27 23 -31 -7 -3 -4 -4 8 -1 11 3 53 -6 94 -20
71 -24 143 -36 95 -15 -28 12 -8 12 98 -1 83 -10 103 -9 196 10 58 12 108 24
112 26 4 3 51 14 105 25 69 14 124 33 186 65 77 39 87 42 77 22 -11 -20 -11
-21 4 -8 10 7 17 19 17 25 1 24 51 68 71 63 16 -4 18 -3 9 8 -9 11 -6 19 17
39 28 24 43 20 43 -14 0 -13 -1 -13 -10 0 -6 9 -10 10 -10 3 0 -6 5 -15 12
-19 8 -5 7 -10 -4 -18 -8 -6 -17 -18 -20 -27 -4 -9 -19 -20 -34 -23 -16 -4
-34 -16 -42 -27 -7 -10 -34 -31 -60 -46 -26 -15 -60 -37 -77 -48 -70 -51 -158
-86 -258 -105 -56 -11 -115 -23 -132 -28 -16 -5 -36 -7 -42 -5 -7 3 -13 0 -13
-6 0 -7 -24 -11 -62 -11 -62 0 -276 25 -312 36 -11 4 -16 2 -12 -4 3 -5 24
-12 47 -16 29 -5 39 -11 36 -20 -3 -8 2 -16 14 -19 21 -6 26 8 7 17 -7 3 10 4
37 1 171 -15 267 -17 329 -4 41 8 61 16 54 21 -8 5 -2 8 17 8 17 1 71 12 120
26 50 13 101 27 115 30 14 4 30 11 35 18 6 6 37 24 70 41 33 16 82 50 108 74
26 24 59 46 73 47 14 2 32 11 40 21 13 16 14 11 8 -45 -5 -47 -2 -73 11 -108
10 -25 20 -41 24 -35 4 7 17 4 36 -9 22 -15 47 -20 97 -20 62 0 70 3 104 32
45 40 64 82 64 143 0 76 -23 105 -134 167 -33 19 -76 24 -76 9 0 -4 19 -11 43
-14 27 -4 47 -13 56 -26 7 -12 21 -21 31 -21 66 0 87 -164 29 -226 -35 -38
-52 -44 -126 -48 -66 -4 -68 -4 -105 34 -33 32 -38 44 -38 81 1 24 7 62 15 84
9 24 11 41 5 43 -19 7 -10 24 58 116 180 243 276 435 299 603 3 24 9 41 13 38
20 -13 41 74 45 190 2 39 1 58 -2 43 -2 -16 -9 -28 -15 -28 -7 0 -8 29 -3 88
10 133 11 259 1 346 -7 59 -6 77 2 72 8 -4 12 0 12 11 0 28 -76 284 -105 356
-6 14 -1 17 29 17 20 0 36 -5 36 -11 0 -5 5 -7 10 -4 10 6 48 -28 82 -75 17
-23 17 -23 -30 -46 -55 -26 -52 -30 8 -9 50 18 50 18 50 5 0 -5 -13 -16 -30
-25 -16 -9 -30 -20 -30 -26 0 -8 4 -8 13 -2 6 6 24 13 40 17 25 6 27 4 27 -21
-1 -37 -24 -100 -45 -123 -15 -17 -17 -45 -16 -251 2 -209 0 -231 -14 -219 -8
7 -15 8 -15 2 0 -5 6 -12 14 -15 11 -4 13 -119 11 -684 -2 -373 -3 -683 -4
-689 -1 -10 -54 -40 -58 -32 -1 1 -12 -7 -25 -18 -25 -24 -81 -54 -98 -54 -6
0 -18 -7 -27 -16 -9 -8 -22 -13 -30 -10 -8 4 -22 -3 -31 -13 -19 -22 -139 -59
-397 -120 -93 -23 -195 -48 -225 -55 -146 -38 -467 -66 -520 -45 -8 3 -12 4
-7 2 17 -10 4 -18 -30 -19 -21 -1 -78 -5 -128 -10 -49 -5 -181 -9 -292 -9
-110 0 -199 -3 -196 -7 2 -5 -12 -8 -31 -8 -20 0 -36 4 -36 10 0 5 7 7 15 4 8
-4 15 -1 15 5 0 14 -37 14 -42 0 -6 -17 -250 6 -438 42 -273 51 -454 98 -507
130 -21 13 -42 24 -47 24 -16 0 -74 83 -84 118 -9 33 -5 1376 4 1435 4 26 8
31 18 23 7 -6 15 -9 18 -6 8 8 -11 138 -24 170 -10 23 -13 241 -13 990 0 1062
2 1195 17 1195 15 0 68 47 61 54 -4 3 -1 6 6 6 9 0 12 9 8 27 -3 15 1 32 9 40
7 7 10 21 7 30 -5 12 -2 15 10 10 21 -8 22 9 2 21 -18 10 -30 62 -15 62 7 0 8
5 3 13 -4 6 -9 21 -10 32 -10 79 -16 97 -39 105 -13 5 -24 14 -24 20 0 5 -7
10 -16 10 -15 0 -16 17 -11 168 3 113 10 183 21 217 18 57 21 89 6 80 -5 -3
-10 -3 -10 0 0 13 39 82 53 93 17 14 116 22 123 10 7 -11 44 -10 44 2 0 6 9
10 20 10 11 0 40 16 66 35 25 19 53 35 62 36 10 0 12 3 5 5 -7 3 -10 11 -7 18
6 16 -43 28 -50 12 -2 -6 -5 3 -5 21 -1 31 1 32 62 46 l62 15 -78 1 c-77 1
-157 27 -157 51 0 6 -5 9 -12 8 -6 -2 -18 10 -27 27 -13 26 -13 83 -2 468 9
288 17 454 26 487 24 92 82 148 150 146 22 -1 63 -3 92 -4 l52 -2 -24 -42
c-13 -24 -28 -68 -34 -98 -9 -48 -18 -300 -21 -620 -1 -103 -1 -104 -17 -75
-17 31 -27 79 -26 128 0 15 -3 27 -7 27 -13 0 -13 447 0 455 5 3 10 26 10 50
0 24 9 71 19 105 14 44 16 58 6 50 -19 -16 -68 -148 -61 -165 3 -8 0 -133 -5
-277 -9 -207 -9 -278 1 -333 14 -75 25 -105 40 -105 5 0 7 8 4 18 -4 10 6 4
23 -14 45 -49 112 -96 128 -90 8 3 52 -1 97 -9 46 -8 97 -14 113 -14 35 2
-165 38 -212 38 -42 1 -103 70 -103 116 0 43 11 50 32 23 l18 -23 -10 30 c-9
28 -9 29 5 11 8 -11 15 -25 15 -31 0 -13 42 -55 55 -55 5 0 -1 10 -12 23 -30
32 -48 72 -73 162 -21 75 -22 93 -17 300 3 121 11 242 16 269 16 71 50 134 75
138 12 2 145 -5 296 -14 151 -9 518 -30 815 -47 297 -17 581 -33 630 -36 50
-4 119 -8 155 -10 205 -13 314 -17 309 -11 -3 3 -43 8 -90 11 -46 3 -115 8
-152 11 -38 3 -96 7 -130 9 -298 19 -448 28 -822 50 -236 14 -452 27 -480 30
-27 3 -171 12 -320 20 -148 9 -306 18 -349 20 -76 5 -149 -11 -218 -47 -29
-14 -21 -31 11 -26 29 4 30 4 15 -24 -31 -60 -34 -108 -56 -895 -3 -92 -14
-107 -47 -62 -25 34 -52 37 -92 8 -24 -17 -30 -18 -35 -6 -3 8 -1 135 4 281 9
259 10 267 32 291 17 18 26 22 31 13 13 -21 21 -1 21 54 -1 29 6 102 15 163
14 98 19 402 7 414 -2 2 -4 -61 -5 -140 -1 -216 -16 -224 -20 -11 -5 211 -9
201 94 183 34 -6 157 -15 272 -21 116 -6 284 -15 375 -20 91 -6 408 -24 705
-40 297 -17 563 -32 590 -35 90 -8 430 -18 425 -12 -3 3 -39 8 -80 11 -41 3
-88 7 -105 10 -16 3 -82 7 -145 10 -335 16 -720 36 -755 41 -22 2 -94 7 -160
9 -66 3 -156 10 -200 16 -84 11 -783 50 -898 50 -58 0 -66 2 -60 17 8 20 9 20
-152 -40 -66 -24 -121 -43 -123 -42 -5 4 20 211 28 230 18 42 22 153 7 187 -8
18 -22 85 -32 149 -16 102 -17 130 -6 224 7 59 18 126 26 149 12 37 87 347 90
371 3 30 18 64 26 59 5 -3 6 2 3 10 -3 9 -1 16 5 16 6 0 34 18 63 40 64 48
181 95 279 112 54 10 73 17 77 30 2 10 11 18 18 18 28 0 15 44 -19 61 -18 9
-33 25 -35 37 -3 21 -47 37 -83 31 -8 -1 -35 1 -60 5 -29 5 -62 3 -90 -5 -53
-15 -310 -22 -288 -8 12 8 11 12 -5 24 -11 8 -28 15 -38 15 -9 0 -28 12 -41
26 -16 17 -27 22 -31 15 -4 -6 -2 -10 5 -9 6 2 14 -3 16 -11 4 -10 -2 -12 -27
-6 -17 4 -67 7 -110 7 -52 0 -79 4 -77 11 3 16 -24 17 -63 2z m550 -2343 c0
-20 -40 -49 -49 -34 -5 8 -32 9 -78 4 -7 -1 -13 -9 -13 -18 0 -10 -6 -14 -15
-10 -10 3 -15 -1 -16 -12 0 -10 -3 -12 -6 -4 -7 18 -27 15 -53 -8 -12 -11 -26
-18 -29 -16 -4 3 -13 -9 -20 -25 -7 -16 -17 -27 -22 -23 -5 3 -9 1 -9 -4 0 -5
-18 -8 -40 -7 -22 1 -40 1 -40 -1 0 -24 14 -30 53 -23 100 18 117 22 117 32 0
6 2 8 6 5 3 -3 35 5 72 18 36 12 67 22 67 21 0 -1 -2 -97 -5 -214 -4 -187 -7
-214 -23 -230 -17 -17 -17 -16 -3 25 15 40 14 43 -2 38 -9 -3 -100 -19 -202
-36 -102 -17 -192 -33 -201 -35 -18 -6 -47 28 -92 105 l-26 46 22 36 c18 31
119 128 133 128 2 0 1 -8 -3 -17 -6 -16 -4 -16 15 1 12 10 24 27 27 37 3 10
15 21 26 24 14 5 17 11 10 22 -5 10 -5 28 1 44 9 26 24 33 191 88 100 33 188
60 195 60 6 1 12 -7 12 -17z m-139 -546 c-6 -14 -14 -26 -18 -26 -5 0 -107
-19 -228 -41 -302 -56 -295 -55 -325 -31 -20 16 -22 22 -10 26 8 2 141 26 295
51 154 26 282 49 284 51 10 10 11 -5 2 -30z m-836 -76 c6 -4 55 -8 110 -9 86
-2 103 -5 122 -23 17 -16 20 -25 12 -34 -8 -9 -4 -14 13 -17 22 -4 22 -4 -3
-6 -14 0 -43 8 -65 18 -56 27 -129 45 -156 37 -20 -5 -84 3 -175 20 -13 2 -23
11 -23 20 0 14 11 15 78 9 42 -4 82 -11 87 -15z m865 -159 c0 -44 5 -83 10
-86 6 -4 10 5 10 21 l0 27 20 -25 c11 -14 37 -33 59 -41 38 -16 59 -41 41 -52
-6 -4 -5 -13 1 -24 10 -14 5 -26 -22 -62 -19 -24 -51 -78 -72 -119 l-37 -75
-7 -385 c-6 -391 -10 -2041 -5 -2035 8 8 23 821 24 1377 1 262 5 475 9 472 4
-2 10 4 12 13 3 10 5 3 6 -14 0 -18 -3 -33 -7 -33 -5 0 -5 -28 -1 -62 5 -35 8
-418 9 -852 0 -769 -4 -906 -31 -906 -5 0 -9 -4 -9 -10 0 -5 8 -6 18 -3 16 7
16 6 0 -11 -10 -9 -18 -26 -18 -36 0 -10 -8 -21 -17 -25 -16 -6 -15 -8 5 -16
25 -9 23 12 27 -326 2 -105 6 -196 10 -203 4 -6 -1 -23 -11 -38 -13 -21 -14
-24 -2 -14 14 11 16 4 18 -55 4 -120 4 -140 2 -658 -2 -364 -6 -505 -13 -492
-6 10 -14 57 -18 105 -8 83 -8 84 -10 25 0 -34 -6 -65 -11 -68 -6 -4 -8 -10
-5 -15 7 -11 -22 -33 -35 -25 -14 9 -14 4795 0 4795 6 0 11 -28 11 -62 1 -50
3 -57 9 -33 4 17 8 47 9 68 0 20 6 37 11 37 6 0 10 -33 10 -79z m-544 -1446
c123 -85 229 -287 294 -558 28 -118 36 -167 26 -167 -2 0 -11 -3 -20 -6 -12
-5 -16 0 -16 19 0 14 -4 29 -10 32 -5 3 -10 -2 -10 -12 0 -15 -2 -16 -11 -3
-9 12 -9 11 -4 -5 4 -11 7 -28 7 -38 -1 -13 4 -17 14 -13 8 3 12 2 9 -3 -3 -5
-1 -12 4 -15 5 -3 11 1 15 9 9 24 26 17 26 -10 0 -14 4 -25 9 -25 4 0 16 -35
26 -77 20 -85 26 -329 13 -518 -4 -65 -4 -91 2 -75 11 28 5 -153 -6 -208 -7
-34 -24 -34 -24 -1 0 31 -43 25 -57 -8 -15 -35 -53 -181 -53 -207 0 -11 -3
-17 -6 -14 -3 3 3 62 13 129 15 102 18 188 18 479 0 433 -12 537 -90 794 -46
152 -64 197 -111 276 -59 102 -141 181 -186 180 -7 -1 1 -7 17 -14 125 -55
198 -218 275 -616 22 -118 49 -240 58 -270 15 -47 17 -103 17 -405 0 -391 -7
-461 -71 -673 -42 -138 -82 -219 -137 -279 l-41 -45 -84 5 c-74 4 -87 8 -110
30 -30 31 -25 43 11 26 62 -28 142 22 191 119 28 57 44 105 26 82 -10 -13 -11
-12 -6 3 3 10 6 24 6 30 0 8 3 8 9 -1 14 -23 63 173 69 277 4 69 2 92 -7 87
-6 -4 -11 -19 -11 -34 0 -68 -82 -363 -97 -348 -3 2 4 33 16 68 28 84 50 230
56 358 l4 105 -9 -100 c-18 -202 -61 -390 -92 -403 -4 -2 -5 -9 -2 -16 8 -20
-14 -66 -46 -99 -17 -17 -30 -34 -30 -37 0 -4 -10 -11 -23 -17 -31 -15 -70 3
-102 46 -21 29 -25 46 -25 102 0 92 2 95 58 91 40 -3 52 1 84 27 68 57 145
293 153 471 l5 95 -14 -95 c-19 -130 -50 -254 -86 -348 -44 -114 -99 -159
-159 -128 -27 14 -29 19 -24 58 8 77 14 90 55 127 22 20 50 56 63 81 25 49 60
159 53 166 -3 2 -11 -15 -18 -38 -18 -62 -64 -150 -91 -173 l-22 -20 7 20 c19
50 18 75 -3 111 -26 43 -23 57 16 76 32 15 38 38 28 115 l-6 53 -54 0 c-46 0
-56 4 -74 26 -19 24 -21 25 -21 7 0 -28 -35 -59 -47 -41 -14 23 -64 171 -68
206 -4 34 29 106 47 100 5 -2 24 -41 42 -86 19 -46 36 -85 39 -88 3 -3 24 -8
48 -11 30 -4 40 -3 35 5 -4 7 -20 12 -35 12 -35 0 -38 5 -80 102 l-33 77 23
30 c22 30 22 30 2 63 -20 34 -57 48 -76 29 -8 -8 -3 -11 19 -11 33 0 54 -15
54 -41 0 -20 -57 -69 -81 -69 -41 0 -91 102 -51 106 6 1 20 2 30 3 16 2 16 2
-1 12 -9 5 -22 7 -27 4 -15 -9 -12 163 5 280 29 208 73 366 123 446 15 24 34
57 42 73 16 32 84 86 108 86 9 0 12 3 9 6 -13 14 -69 -20 -111 -67 -74 -83
-136 -234 -176 -431 -6 -32 -14 -58 -17 -58 -3 0 -3 40 0 89 5 76 13 109 55
215 56 140 101 214 168 276 62 57 98 71 163 66 41 -4 67 -14 107 -41z m3365
-954 c11 19 17 10 22 -36 6 -48 32 -101 52 -109 8 -3 15 -12 15 -20 0 -9 6
-13 15 -10 9 4 19 -3 26 -20 7 -14 16 -26 20 -26 5 0 17 -17 28 -37 11 -21 35
-55 54 -77 29 -32 47 -71 63 -131 1 -5 12 -35 23 -65 22 -57 52 -176 73 -290
11 -63 22 -327 11 -302 -7 17 -24 15 -17 -3 4 -8 1 -15 -5 -15 -11 0 -12 9
-16 203 -2 64 -6 132 -9 150 -3 17 -9 52 -12 77 -3 25 -17 61 -30 81 -13 19
-24 41 -24 48 0 7 -7 27 -16 44 -10 18 -24 46 -32 62 -8 17 -20 35 -26 40 -6
6 -18 23 -26 40 -8 16 -37 57 -63 90 -26 33 -50 70 -54 83 -3 12 -9 22 -13 22
-4 0 -23 31 -43 69 -26 52 -32 72 -23 82 8 9 8 10 0 6 -7 -4 -14 3 -16 18 -5
25 4 45 11 24 2 -8 6 -8 12 2z m-3908 -140 c11 -21 17 -84 22 -209 6 -154 5
-180 -8 -185 -11 -4 -16 5 -21 41 -9 72 -20 382 -13 382 3 0 12 -13 20 -29z
m142 -251 c27 -97 54 -160 67 -160 5 0 8 -7 8 -15 0 -7 8 -18 17 -24 16 -9 17
-13 4 -43 -7 -18 -17 -64 -22 -103 -5 -38 -18 -106 -28 -150 -11 -44 -22 -123
-26 -175 -3 -52 -8 -120 -11 -150 -3 -30 2 -182 12 -337 16 -247 16 -309 0
-292 -2 2 -14 113 -26 247 -27 288 -24 419 14 632 39 222 38 218 27 193 -14
-30 -56 -239 -71 -343 -17 -130 -17 -261 2 -415 27 -220 51 -540 45 -586 -4
-28 -15 -51 -36 -71 l-30 -30 -21 34 c-11 18 -18 38 -17 43 2 6 12 40 22 77
10 40 22 65 28 61 17 -10 4 128 -49 537 -8 63 -21 174 -29 245 -22 196 -18
466 7 410 6 -14 7 -7 4 20 -3 22 1 67 9 100 8 33 15 83 15 110 0 28 7 82 15
120 8 39 15 97 15 130 0 52 2 57 14 45 8 -8 27 -58 41 -110z m193 -61 c16 -6
22 -17 22 -38 0 -45 -10 -62 -44 -76 -39 -17 -78 1 -101 45 -19 37 -19 49 2
72 14 15 25 18 58 12 22 -3 50 -10 63 -15z m553 -465 c-49 -278 -182 -537
-306 -595 -81 -38 -195 -14 -243 50 l-21 29 41 -10 c22 -5 49 -13 59 -18 22
-12 110 -13 141 -1 32 12 60 39 86 82 29 48 28 55 -4 30 -43 -34 -45 -25 -9
35 19 31 49 98 67 148 l33 91 5 -52 c3 -28 8 -55 12 -58 3 -3 20 18 38 47 31
49 81 206 98 303 6 36 7 37 10 11 2 -16 -1 -57 -7 -92z m-651 -881 c7 -21 14
-107 17 -190 5 -137 4 -153 -11 -153 -9 0 -16 4 -16 8 0 5 -9 18 -21 30 -18
20 -20 31 -15 105 3 45 5 117 5 160 1 60 4 77 16 77 8 0 19 -17 25 -37z m3978
-1050 l-3 -188 -120 -11 c-66 -7 -190 -19 -275 -27 -245 -25 -340 -30 -340
-21 1 25 18 36 39 25 12 -7 27 -9 33 -5 7 4 8 3 4 -4 -9 -15 6 -16 20 -2 6 6
26 12 44 15 18 2 36 9 40 15 4 7 10 11 14 11 12 -1 41 13 54 26 22 22 -5 109
-43 137 -26 18 -7 28 140 70 224 65 258 77 325 111 36 18 66 33 68 34 2 1 2
-83 0 -186z m-3160 95 c8 -10 21 -18 28 -18 7 0 32 -15 57 -34 55 -42 85 -53
93 -33 9 23 68 30 110 12 20 -8 66 -20 102 -26 37 -5 69 -14 72 -18 6 -9 166
-48 269 -65 57 -9 76 -16 82 -32 7 -17 8 -18 8 -1 1 15 7 17 29 13 15 -3 63
-8 107 -11 44 -3 125 -14 180 -23 74 -12 156 -15 314 -14 118 1 212 0 210 -3
-3 -2 -46 -5 -96 -6 l-90 -1 -6 -80 c-3 -44 -9 -84 -15 -90 -5 -5 -146 -20
-313 -33 -618 -50 -816 -69 -1095 -104 l-61 -7 -6 85 c-7 111 -7 552 0 526 3
-11 12 -28 21 -37z m1691 -318 c10 -16 21 -27 26 -22 4 4 6 1 3 -7 -2 -7 9
-27 24 -43 15 -17 28 -36 28 -43 0 -18 -65 -27 -165 -23 -78 3 -80 4 -81 28
-1 28 -12 95 -20 123 -5 15 3 17 80 17 85 0 87 0 105 -30z m655 5 c-6 -24 1
-30 33 -26 6 1 14 -2 17 -7 3 -5 -122 -18 -277 -30 -281 -21 -349 -24 -314
-15 9 2 18 14 18 26 1 18 2 19 6 4 3 -13 10 -16 25 -11 14 4 18 2 14 -5 -11
-17 2 -13 34 10 24 19 33 20 60 10 18 -6 37 -7 44 -3 6 4 27 8 46 9 19 2 61 4
93 7 32 2 61 6 64 10 4 3 17 6 30 6 12 0 23 4 23 10 0 5 7 7 15 4 8 -4 15 -1
15 5 0 7 9 9 25 5 15 -4 25 -2 25 5 0 6 2 11 5 11 3 0 3 -11 -1 -25z"/>
<path d="M5102 5869 c47 -62 85 -142 71 -146 -8 -3 -5 -23 8 -61 34 -95 97
-353 110 -448 7 -49 16 -91 20 -94 4 -3 9 -19 12 -35 2 -17 5 0 6 37 1 79 -39
302 -73 408 -14 41 -26 68 -26 60 -1 -14 -29 55 -44 110 l-7 25 15 -25 c9 -14
15 -19 16 -12 0 25 -80 169 -112 198 l-31 29 35 -46z"/>
<path d="M5266 5765 c4 -11 15 -46 25 -78 22 -69 24 -100 3 -42 -27 75 -33 58
-10 -31 13 -49 36 -174 51 -279 15 -104 29 -192 31 -194 2 -2 4 22 4 54 0 32
2 56 5 54 13 -14 28 -179 35 -394 l8 -240 -3 265 c-2 160 -10 317 -19 395 -19
151 -76 388 -112 460 -13 28 -21 41 -18 30z"/>
<path d="M5555 10500 c-115 -9 -185 -30 -293 -87 -135 -72 -130 -66 -139 -131
-5 -32 -5 -32 33 -28 35 5 54 18 54 41 0 6 22 22 49 37 28 15 48 21 45 13 -3
-7 2 -15 11 -19 14 -5 13 -9 -7 -36 -16 -22 -19 -33 -11 -41 8 -8 17 -3 33 19
22 29 23 30 39 12 9 -10 37 -26 63 -35 45 -16 50 -16 83 -1 19 9 35 21 35 26
0 5 19 22 43 37 23 15 44 31 47 34 9 12 91 30 109 24 18 -5 34 17 44 63 4 18
-1 26 -26 37 -18 9 -43 22 -57 30 -14 8 -34 14 -45 13 -11 0 -60 -4 -110 -8z"/>
<path d="M5198 9839 c-1 -13 -10 -24 -18 -25 -45 -3 -56 -5 -70 -14 -17 -11
-1 -27 72 -75 58 -38 128 -31 128 12 0 25 -20 53 -39 53 -6 0 -19 17 -30 38
-11 20 -20 30 -21 22 0 -13 -2 -13 -9 -1 -7 11 -10 9 -13 -10z"/>
<path d="M5034 9229 c-19 -21 -52 -47 -271 -214 -111 -85 -130 -96 -118 -72 4
6 -7 -3 -24 -22 -17 -19 -37 -36 -45 -37 -14 -2 -66 -34 -66 -41 0 -2 8 1 19
6 10 6 21 8 24 4 4 -3 28 8 54 25 74 47 96 50 122 13 19 -26 27 -30 49 -25 15
4 38 14 52 22 14 9 48 28 75 42 28 14 62 34 77 44 15 10 31 15 37 12 5 -3 11
1 15 9 3 8 13 15 23 15 24 1 58 48 55 78 -1 16 14 39 53 77 61 59 77 99 18 44
-21 -18 -29 -24 -19 -11 32 38 12 34 -47 -9 -32 -22 -62 -37 -67 -34 -6 3 -10
2 -10 -4 0 -6 -7 -8 -15 -5 -8 4 -15 1 -15 -5 0 -6 -12 -17 -27 -23 -16 -7
-37 -19 -48 -27 -11 -9 15 21 58 65 42 45 77 84 77 88 0 13 -18 5 -36 -15z"/>
<path d="M3823 9128 c-26 -33 -160 -149 -212 -183 -24 -17 -63 -50 -85 -74
-23 -25 -186 -189 -364 -365 -177 -177 -322 -326 -322 -332 0 -6 -31 -36 -69
-65 -38 -30 -72 -60 -76 -68 -9 -23 36 -63 67 -59 23 4 25 2 17 -14 -5 -10
-16 -18 -23 -18 -8 0 -19 -7 -26 -15 -7 -8 -16 -13 -20 -10 -4 2 -18 -7 -31
-21 -13 -15 -33 -30 -44 -35 -11 -5 -47 -26 -80 -47 -33 -20 -107 -64 -164
-96 -83 -48 -113 -71 -152 -120 -55 -70 -60 -86 -23 -86 29 0 60 14 89 41 28
25 186 91 202 84 8 -2 11 0 8 5 -3 6 1 10 10 10 9 0 31 10 48 22 17 12 42 23
56 25 14 1 58 9 96 18 39 8 103 18 143 22 39 3 72 10 72 15 0 5 5 6 12 2 7 -5
5 -11 -8 -21 -17 -13 -15 -14 21 -7 22 4 46 14 54 21 11 11 29 13 70 9 42 -4
50 -3 33 4 -30 13 -23 33 14 41 16 3 -10 5 -57 4 -47 -1 -90 -5 -96 -8 -6 -4
-13 -3 -17 1 -4 4 -22 7 -38 7 -17 0 -33 6 -35 13 -3 7 4 12 16 12 11 0 23 5
26 10 3 6 16 10 29 10 12 0 27 5 33 11 5 5 26 10 44 9 72 -2 92 0 104 10 10 8
16 7 24 -7 7 -11 14 -14 18 -8 5 6 16 11 27 13 15 3 18 -1 13 -17 -3 -12 -1
-21 4 -21 5 0 9 5 9 10 0 6 5 16 10 23 6 7 19 23 29 37 17 21 22 23 33 11 9
-10 9 -12 1 -7 -7 4 -13 3 -13 -3 0 -16 24 -19 50 -6 14 7 40 16 57 20 18 3
35 11 38 16 4 5 -8 6 -26 2 -27 -5 -31 -4 -26 10 4 10 2 17 -2 17 -5 0 -12 -6
-14 -12 -3 -7 -6 -3 -6 10 -1 14 5 22 17 23 10 0 12 3 4 6 -6 2 -10 8 -7 13 7
11 -101 -14 -153 -35 -24 -10 -46 -15 -49 -11 -4 3 -4 7 -2 9 3 3 145 67 377
169 24 11 42 21 40 23 -4 5 -145 -46 -272 -99 -49 -20 -98 -36 -109 -36 l-21
0 21 21 c13 13 38 23 62 25 48 5 122 34 104 41 -7 3 -13 9 -13 14 0 4 7 6 16
2 9 -3 19 0 24 6 4 7 14 13 22 15 8 1 23 10 32 19 10 9 22 14 28 11 7 -5 9 2
4 20 -5 21 -3 26 11 27 37 1 55 8 67 25 7 9 19 15 27 12 7 -2 34 8 58 24 25
15 50 28 57 28 17 0 168 81 173 92 1 5 14 21 27 35 29 31 30 34 7 26 -15 -6
-16 -4 -5 9 9 11 10 23 2 42 -5 15 -10 29 -10 30 0 2 39 27 86 56 80 49 144
101 144 116 0 3 -15 -4 -32 -16 -18 -11 -53 -30 -78 -41 -25 -12 -78 -37 -118
-57 -40 -21 -76 -37 -80 -37 -4 -1 -17 -6 -28 -13 -12 -6 -24 -9 -27 -5 -12
11 -69 -20 -77 -43 -6 -14 -43 -41 -103 -73 -100 -54 -117 -60 -97 -36 7 8 18
15 24 15 19 0 59 47 51 60 -5 8 -12 7 -23 -3 -23 -20 -92 -39 -92 -25 0 6 -7
8 -15 4 -10 -3 -15 1 -15 12 -1 15 -2 15 -16 -3 -13 -17 -16 -18 -24 -5 -12
19 -12 27 0 35 5 3 15 16 21 28 9 17 4 15 -22 -9 -38 -36 -79 -59 -79 -46 0 5
35 47 78 93 121 132 229 255 207 239 -10 -8 -101 -98 -202 -200 -100 -102
-183 -179 -183 -172 0 11 61 77 239 258 2 2 1 4 -2 4 -3 0 -23 -15 -44 -32
-25 -22 -16 -9 25 37 34 38 62 75 62 82 0 6 23 36 51 67 37 40 57 55 72 52 16
-2 49 22 122 90 105 97 149 154 121 154 -8 0 -23 -10 -33 -22z"/>
<path d="M6198 8639 c-33 -19 -56 -106 -57 -224 0 -60 -4 -164 -9 -230 -4 -66
-8 -199 -7 -295 0 -162 2 -178 24 -223 14 -29 35 -54 53 -63 41 -21 160 -21
273 -1 50 9 131 19 180 22 50 3 146 12 215 20 153 18 567 28 576 14 3 -5 14
-7 25 -4 11 4 66 3 122 -1 l102 -8 -80 -7 c-44 -4 -196 -12 -339 -18 -329 -14
-553 -41 -831 -100 -120 -26 -58 -26 81 -1 121 23 470 71 500 69 15 -1 14 -3
-6 -10 -21 -7 -19 -8 10 -3 19 3 136 6 260 8 l225 3 -165 -13 c-253 -21 -786
-94 -833 -115 -19 -8 -17 -8 8 -4 17 3 138 19 270 35 365 46 483 48 915 14
172 -13 373 -22 386 -17 8 3 14 0 14 -7 0 -6 4 -9 9 -5 5 3 12 1 16 -5 3 -5
18 -10 33 -9 l27 1 -25 8 c-22 7 -20 8 14 9 56 1 41 9 -30 15 -91 8 -146 17
-175 28 -15 5 -62 15 -105 23 l-79 13 120 3 c193 5 264 -2 540 -51 214 -38
262 -45 253 -36 -3 4 -53 18 -110 31 -57 13 -121 28 -143 34 -22 6 -107 20
-190 31 -213 29 -353 54 -331 58 15 3 16 6 5 14 -15 10 95 3 191 -12 30 -5 78
-11 106 -14 29 -3 80 -12 115 -20 35 -8 111 -22 169 -31 58 -9 130 -22 160
-30 47 -12 72 -13 59 -1 -11 9 -220 66 -264 71 -59 7 -64 11 -30 19 36 9 31
23 -7 19 -76 -8 -227 -5 -273 5 -162 37 -550 57 -893 47 -135 -5 -217 -3 -225
3 -21 17 -168 41 -287 47 -63 3 -124 8 -135 11 -13 4 -16 3 -10 -3 14 -13 116
-30 275 -44 74 -6 138 -15 143 -18 4 -4 -64 -13 -150 -19 -148 -12 -357 -40
-466 -62 -62 -13 -132 -13 -178 0 -28 8 -42 20 -55 48 -18 34 -19 63 -17 377
3 457 5 500 32 559 11 27 20 50 19 52 -2 1 -11 -2 -20 -7z"/>
<path d="M9129 8105 c-4 -5 -5 -44 -4 -85 1 -41 3 -114 5 -161 1 -48 0 -91 -4
-97 -5 -8 -23 -148 -30 -237 -4 -44 -33 -83 -67 -90 -16 -4 -31 -10 -34 -15
-3 -5 -19 -4 -36 2 -49 17 -45 1 7 -21 38 -17 49 -19 58 -8 6 7 23 21 38 30
36 22 52 63 69 168 21 140 20 551 -2 514z"/>
<path d="M7315 7370 c-71 -10 -170 -25 -220 -34 -49 -9 -166 -30 -259 -47
-203 -36 -229 -42 -326 -74 -91 -30 -70 -27 125 18 83 19 229 47 325 62 96 14
232 37 303 51 70 13 141 24 157 24 17 0 30 5 30 10 0 6 -1 9 -2 9 -2 -1 -61
-9 -133 -19z"/>
<path d="M7886 7365 c6 -24 5 -25 -45 -25 -28 0 -53 1 -54 3 -2 1 -11 -4 -20
-11 -9 -8 -42 -22 -74 -32 -69 -23 -41 -26 37 -5 122 33 163 36 261 21 87 -13
203 -53 239 -81 21 -17 221 -114 215 -105 -6 9 -181 110 -247 141 -50 24 -65
45 -25 36 50 -13 158 -29 162 -25 3 3 -91 23 -207 47 -117 23 -217 46 -222 51
-18 18 -27 11 -20 -15z"/>
<path d="M6200 6590 c-2 -322 -4 -736 -4 -920 -6 -2281 -6 -2713 -1 -2718 3
-3 5 3 4 14 -2 58 13 2153 15 2174 2 14 0 477 -3 1030 -7 962 -8 980 -11 420z"/>
<path d="M8476 7095 c10 -16 30 -43 45 -60 190 -208 284 -393 310 -610 18
-153 12 -321 -12 -351 -6 -7 -9 -16 -8 -20 1 -5 0 -16 -3 -24 -11 -33 -71
-248 -80 -288 -7 -28 -7 -47 -1 -53 17 -17 37 30 62 136 25 112 40 155 51 155
17 0 34 356 18 366 -5 3 -3 14 3 25 6 11 8 28 4 36 -3 9 -8 32 -11 52 -7 49
-71 235 -100 292 -13 26 -20 49 -17 53 9 9 -40 74 -52 69 -7 -2 -20 8 -30 23
-11 17 -12 24 -4 18 17 -10 -16 27 -116 131 -42 44 -69 67 -59 50z"/>
<path d="M6266 7005 c-7 -20 -9 -1445 -1 -1453 3 -3 5 152 5 344 1 192 3 523
6 737 4 213 4 387 1 387 -3 0 -7 -7 -11 -15z"/>
<path d="M7835 6990 c-85 -13 -137 -30 -217 -72 -194 -100 -349 -321 -404
-573 -27 -127 -23 -324 10 -450 44 -170 121 -309 232 -417 108 -105 194 -153
329 -183 180 -40 408 17 549 137 66 56 156 180 206 281 65 132 83 216 85 402
2 102 0 138 -4 100 -8 -62 -14 -40 -20 67 -1 19 -5 26 -15 22 -9 -4 -16 2 -18
17 -4 26 -28 39 -28 14 0 -9 -5 -13 -10 -10 -6 4 -8 21 -4 41 4 22 2 40 -7 51
-8 9 -9 14 -3 10 17 -10 41 27 40 60 -1 21 -5 29 -16 26 -11 -3 -16 5 -17 27
-1 17 2 28 7 25 6 -3 7 1 4 9 -3 9 -10 13 -15 10 -5 -3 -6 1 -4 8 6 16 -40 92
-97 160 -41 47 -66 63 -54 32 3 -9 2 -12 -5 -9 -6 4 -8 14 -4 22 14 39 -161
152 -274 178 -78 18 -187 25 -246 15z m168 -21 c40 -10 47 -28 22 -56 -8 -10
-15 -22 -14 -26 0 -4 -6 -19 -15 -31 -14 -23 -14 -24 17 -31 21 -5 26 -9 15
-12 -9 -2 -15 -10 -12 -17 4 -11 -5 -11 -53 0 -164 39 -345 -7 -471 -119 -27
-24 -58 -50 -68 -58 -24 -18 -106 -183 -133 -269 -63 -203 -46 -404 53 -594
43 -83 63 -111 128 -170 42 -38 75 -73 72 -77 -2 -4 3 -6 12 -5 13 1 17 -10
19 -47 3 -57 0 -56 -69 3 -175 151 -277 370 -293 625 -19 330 126 644 369 798
141 90 288 120 421 86z m-175 -210 l47 -30 -35 30 -34 31 53 0 c64 0 185 -40
246 -81 47 -32 139 -128 130 -137 -2 -3 0 -11 6 -18 5 -7 12 -33 15 -58 2 -25
6 -65 8 -88 3 -24 10 -65 16 -92 6 -27 8 -51 6 -54 -3 -2 1 -10 8 -18 20 -19
37 -148 23 -171 -4 -6 -2 -24 4 -41 8 -24 7 -37 -5 -61 -9 -17 -15 -34 -14
-38 4 -17 -25 -61 -37 -57 -9 4 -11 -3 -7 -22 4 -23 2 -26 -12 -21 -28 11 -37
-2 -16 -23 11 -11 20 -28 19 -37 0 -14 -2 -14 -9 4 -5 12 -18 24 -29 28 -12 3
-21 10 -21 15 0 5 -13 1 -30 -8 -16 -9 -30 -20 -30 -24 0 -5 -7 -8 -16 -8 -8
0 -22 -17 -31 -37 -9 -21 -18 -33 -20 -26 -2 6 3 25 11 41 27 53 57 185 63
283 7 120 -11 270 -44 364 -27 76 -82 179 -90 171 -3 -3 -1 -12 6 -20 10 -12
71 -168 71 -182 0 -4 -13 8 -29 25 -29 31 -54 42 -46 19 6 -14 -53 -17 -73 -4
-7 4 -12 1 -12 -6 0 -7 -11 -14 -24 -14 -19 -1 -23 3 -20 20 3 15 0 13 -8 -6
-10 -23 -16 -26 -37 -21 -25 6 -25 5 -8 -14 17 -19 16 -20 -12 -20 -27 0 -31
5 -41 46 -12 52 -51 154 -56 148 -2 -2 0 -19 5 -38 17 -66 21 -100 11 -94 -6
3 -10 1 -10 -4 0 -6 -10 -10 -22 -8 -22 2 -23 0 -20 -75 1 -53 -1 -78 -9 -78
-7 0 -8 -5 -3 -12 11 -16 11 -32 -4 -82 -6 -22 -9 -42 -7 -46 5 -8 -27 -86
-71 -173 -27 -55 -29 -74 -10 -100 13 -17 16 -17 46 -2 17 9 35 26 41 38 5 12
18 36 28 52 11 17 20 49 20 74 1 37 -1 42 -14 31 -21 -17 -18 0 4 28 19 21 38
31 27 13 -3 -5 2 -8 12 -7 26 2 27 -60 2 -150 -25 -93 -50 -143 -98 -196 -44
-49 -85 -68 -146 -68 -54 0 -74 16 -120 94 -66 110 -107 281 -100 416 4 77 41
225 71 283 37 72 93 127 80 78 -3 -14 0 -17 13 -14 13 3 21 -4 28 -24 8 -22
11 -24 11 -8 1 21 33 55 51 55 6 0 10 10 10 22 0 21 0 21 15 2 8 -11 14 -14
15 -6 0 7 -9 20 -19 29 -11 9 -17 22 -14 30 4 9 0 11 -11 7 -9 -3 -16 -1 -16
5 0 9 -6 9 -22 0 -46 -23 57 72 111 103 46 26 147 66 174 67 5 1 29 -13 55
-30z m259 -445 c-3 -4 1 -21 11 -38 13 -25 17 -58 17 -171 0 -165 -25 -272
-73 -313 -16 -13 -20 -20 -9 -16 15 5 16 3 8 -17 -8 -23 -81 -136 -81 -127 0
3 -20 -15 -45 -39 -40 -38 -67 -50 -100 -43 -5 1 -17 2 -27 3 -9 1 -15 4 -12
8 2 4 -5 9 -16 12 -14 4 -20 0 -20 -11 -1 -14 -3 -14 -17 3 -15 20 -15 20 -10
-3 4 -15 1 -22 -6 -19 -7 2 -13 13 -15 25 -3 17 -6 19 -16 9 -8 -6 -13 -16
-11 -22 1 -5 0 -7 -2 -2 -3 4 -11 7 -19 7 -8 0 -14 5 -14 10 0 6 -5 10 -11 10
-5 0 -7 -4 -4 -10 3 -5 -1 -10 -10 -10 -12 0 -15 -5 -11 -16 8 -21 -58 18 -99
59 -27 27 -28 29 -8 24 72 -17 179 59 231 165 26 55 74 209 75 246 0 17 2 16
32 -14 14 -14 29 -24 32 -21 3 3 22 -3 41 -14 39 -20 56 -24 48 -11 -7 12 24
53 35 47 5 -4 9 -2 9 4 0 5 -5 11 -10 13 -6 2 -2 13 10 25 25 27 25 33 3 33
-16 1 -16 2 -3 13 9 7 15 19 14 27 0 8 -2 26 -3 40 -1 20 -3 22 -11 10 -8 -13
-10 -12 -10 3 0 11 8 17 24 17 29 0 39 14 42 53 4 42 11 57 30 57 10 0 15 -3
11 -6z m494 -411 c7 -100 -86 -289 -192 -393 -79 -77 -196 -157 -267 -183 -67
-24 -300 -39 -287 -17 4 6 13 9 21 6 8 -3 14 -1 14 4 0 5 7 7 15 4 24 -10 75
16 75 37 0 14 7 19 25 19 14 0 25 4 25 9 0 5 14 12 30 16 17 4 30 11 30 17 0
6 7 8 15 4 9 -3 15 0 15 9 0 9 16 16 45 21 50 7 68 27 65 72 -3 40 -1 56 6 49
7 -7 84 92 84 107 0 15 42 56 56 56 7 0 19 8 26 18 11 15 81 54 100 56 3 1 10
4 14 9 4 4 19 8 33 8 15 1 19 3 9 6 -14 3 -13 8 8 28 14 14 21 30 18 39 -3 9
-1 16 5 16 6 0 12 -8 12 -17z"/>
<path d="M6908 6898 c-16 -17 -28 -35 -28 -41 0 -6 -7 -18 -16 -28 -21 -23
-46 -68 -93 -164 -50 -101 -71 -172 -77 -249 -4 -60 -21 -109 -34 -101 -3 2
-7 -10 -8 -28 -4 -100 -8 -128 -22 -137 -8 -5 -11 -10 -6 -10 5 0 2 -7 -5 -16
-11 -14 -11 -18 3 -28 21 -15 19 -76 -2 -68 -13 5 -13 3 -1 -11 7 -9 11 -26 8
-37 -3 -11 -1 -20 4 -20 4 0 7 -41 6 -91 -2 -77 1 -92 16 -100 18 -11 24 -39
7 -39 -6 0 -5 -10 2 -25 6 -13 15 -22 19 -19 5 3 9 -3 9 -12 0 -16 1 -16 15 2
9 12 13 13 11 4 -12 -43 -16 -74 -8 -62 8 12 13 12 31 1 11 -8 21 -19 21 -25
0 -7 11 -15 25 -18 31 -8 43 -47 59 -201 11 -98 11 -123 0 -135 -13 -16 -14
-36 -1 -57 4 -6 1 -18 -7 -26 -8 -8 -22 -31 -30 -52 -9 -21 -22 -43 -30 -49
-8 -6 -19 -29 -26 -50 -15 -45 -63 -131 -91 -162 -10 -11 -20 -33 -21 -48 -1
-15 -10 -32 -20 -37 -47 -25 -76 -148 -34 -141 16 3 18 1 8 -10 -9 -11 -7 -14
11 -13 12 0 27 4 34 8 7 4 22 2 33 -5 18 -11 21 -20 16 -53 -6 -39 -5 -39 9
-15 8 14 14 38 15 54 0 20 4 27 14 23 10 -4 13 -1 10 7 -10 26 16 92 55 145
33 44 40 49 45 33 4 -11 2 -31 -3 -46 -16 -40 -4 -31 20 17 12 23 24 37 26 30
5 -13 -31 -88 -47 -98 -5 -3 -10 -16 -10 -29 0 -12 -5 -27 -12 -34 -6 -6 -9
-14 -6 -18 13 -12 238 452 238 491 0 3 -4 5 -8 5 -5 0 -15 -19 -21 -42 -22
-74 -83 -198 -94 -191 -5 3 -7 1 -3 -5 10 -17 -13 -25 -30 -11 -14 12 -14 15
5 30 12 10 21 20 21 24 0 4 9 15 19 25 11 9 22 29 25 43 3 15 15 41 27 59 13
17 29 61 36 97 14 75 17 229 4 249 -9 14 -21 -77 -21 -158 0 -36 -8 -61 -37
-109 -35 -59 -61 -81 -48 -41 5 15 2 20 -11 20 -14 0 -15 2 -3 17 12 15 12 16
-3 10 -9 -3 -19 -1 -22 6 -2 7 -5 -3 -5 -20 -1 -18 -6 -33 -12 -33 -7 0 -8 7
-4 18 18 48 33 303 21 362 -3 14 -17 56 -30 94 -24 68 -25 95 -2 98 6 0 16 2
21 2 6 1 19 7 31 14 20 10 23 5 64 -96 23 -59 45 -109 47 -112 14 -13 -12 83
-42 160 -23 60 -35 108 -38 162 -3 42 -10 85 -15 95 -12 23 -4 83 15 105 14
15 13 19 -1 34 -10 9 -14 24 -11 32 3 8 0 19 -7 24 -9 5 -9 8 -1 8 6 0 9 8 6
19 -3 13 -10 18 -21 13 -14 -5 -15 -3 -4 10 10 12 9 18 -3 28 -9 7 -14 19 -11
27 3 7 1 13 -4 13 -6 0 -10 18 -10 39 0 22 -4 42 -9 45 -4 3 -6 17 -3 31 2 15
0 25 -7 25 -6 0 -11 11 -11 25 0 14 5 25 10 25 6 0 10 -5 10 -11 0 -28 25 20
26 51 1 19 0 28 -3 18 -4 -16 -33 -34 -33 -20 0 4 9 20 19 35 13 20 20 25 24
15 4 -9 6 -7 6 5 1 9 -3 17 -9 17 -13 0 -13 26 2 67 11 29 10 35 -11 57 -21
23 -25 24 -39 9 -11 -10 -17 -12 -20 -4 -2 6 -8 9 -13 5 -5 -3 -9 0 -9 6 0 14
93 197 122 240 36 53 40 60 31 60 -4 -1 -20 -15 -35 -32z"/>
<path d="M5287 6559 c6 -6 18 -12 27 -13 18 -2 36 -23 36 -40 0 -6 -6 -1 -14
10 -21 29 -24 16 -14 -66 9 -84 1 -184 -13 -140 -4 14 -8 54 -9 90 -1 54 -3
60 -10 36 -9 -28 -1 -113 15 -163 5 -16 0 -29 -19 -48 -42 -42 -28 -60 32 -42
27 9 34 18 47 61 17 58 18 104 5 199 -13 91 -33 127 -67 127 -19 0 -24 -3 -16
-11z"/>
<path d="M7106 5558 c5 -7 9 -15 10 -18 0 -3 6 -25 13 -49 19 -66 17 -283 -4
-361 -9 -36 -23 -76 -32 -89 -8 -12 -12 -32 -10 -43 4 -14 0 -22 -14 -25 -13
-4 -42 -51 -88 -147 -39 -77 -86 -170 -106 -205 -19 -35 -43 -86 -52 -113 -9
-28 -27 -63 -39 -78 -13 -15 -24 -35 -24 -44 0 -9 -6 -16 -12 -16 -7 0 -14
-12 -15 -27 -6 -83 -20 -120 -46 -127 -12 -3 -22 -4 -24 -3 -7 8 19 76 37 95
24 25 25 33 5 26 -12 -5 -11 5 4 58 10 34 26 80 35 102 9 21 16 43 16 48 0 12
-25 5 -25 -8 -1 -5 -18 -63 -39 -129 -20 -66 -42 -136 -48 -155 -6 -19 -15
-41 -21 -47 -6 -9 -6 -13 3 -13 9 0 11 -10 7 -32 -3 -18 -3 -28 -1 -21 3 7 12
9 20 6 8 -3 22 -2 31 1 14 6 15 9 4 16 -12 7 -12 11 2 24 20 21 31 20 23 0 -4
-9 -1 -22 4 -30 8 -9 8 -24 1 -48 -5 -20 -6 -36 -1 -36 8 0 5 -51 -9 -147 -5
-29 -5 -53 -1 -53 4 0 8 -19 9 -42 1 -24 3 -56 6 -73 3 -16 7 -46 9 -65 11
-85 48 -235 76 -309 38 -99 144 -262 194 -301 16 -12 18 -12 11 -1 -5 10 -4
12 3 7 7 -4 12 -13 12 -20 0 -8 35 -48 78 -91 67 -65 78 -81 74 -102 -4 -23
-2 -25 17 -20 15 3 21 1 21 -10 0 -10 6 -13 16 -9 9 3 25 0 36 -8 10 -8 15
-15 9 -17 -5 -2 12 -16 39 -31 l49 -28 -9 24 c-5 15 -5 27 2 34 7 7 0 12 -20
17 -17 3 -33 13 -36 20 -3 8 -12 12 -21 9 -8 -3 -15 -2 -15 3 0 6 -12 15 -26
22 -21 9 -24 14 -15 25 8 9 8 16 2 20 -5 3 -12 0 -15 -6 -3 -10 -8 -9 -18 3
-7 9 -18 14 -24 12 -15 -5 -56 52 -52 72 5 23 54 -6 51 -31 -2 -12 3 -8 11 10
9 21 15 25 20 15 3 -8 4 0 1 16 -2 17 -2 24 1 18 9 -21 24 -15 25 10 1 20 2
20 6 2 3 -11 9 -24 14 -29 14 -15 11 -26 -5 -20 -19 7 -28 -23 -14 -49 11 -21
11 -21 26 10 10 22 24 33 46 37 24 5 28 9 16 16 -11 7 -7 10 18 10 19 0 31 4
27 10 -8 12 24 61 39 59 27 -3 34 3 31 29 -1 16 -5 34 -9 41 -13 20 3 26 27
11 139 -89 234 -124 381 -143 132 -16 291 13 392 71 28 16 8 14 -24 -2 -94
-48 -340 -66 -461 -32 -168 46 -298 135 -411 282 -71 91 -119 188 -156 311
-21 70 -27 117 -31 230 -9 217 20 355 111 538 25 50 38 81 29 70 -29 -37 -92
-180 -117 -267 -70 -242 -48 -517 59 -743 40 -83 45 -104 14 -60 -55 81 -114
242 -141 385 -13 73 -3 338 16 417 16 63 21 77 91 231 21 45 35 85 32 89 -4 3
-7 -1 -7 -11 0 -11 -6 -16 -17 -14 -10 2 -17 10 -16 16 2 7 -6 12 -17 12 -12
0 -28 13 -40 33 l-20 32 6 -31 c4 -21 1 -34 -10 -43 -9 -8 -16 -9 -16 -3 0 6
5 12 11 14 14 5 1 35 -18 42 -11 4 -13 2 -9 -9 4 -12 0 -14 -22 -9 -15 4 -33
11 -40 17 -9 7 -11 6 -7 -4 3 -8 -5 -20 -17 -28 -16 -10 -23 -10 -26 -2 -2 6
-8 11 -13 11 -5 0 -3 -12 4 -27 9 -21 9 -27 -1 -31 -6 -2 -12 -10 -12 -18 0
-17 -23 -18 -52 -3 -18 10 -19 8 -13 -11 5 -16 2 -23 -14 -27 -20 -5 -20 -5 2
-23 20 -17 23 -17 29 -2 5 14 7 12 7 -5 1 -18 -5 -23 -26 -24 -25 0 -26 -1 -8
-9 17 -7 15 -9 -12 -9 -17 -1 -35 4 -38 9 -3 6 2 10 12 10 13 0 15 2 5 9 -11
6 -10 18 4 60 16 49 18 52 45 46 16 -4 36 -2 45 3 14 8 11 11 -16 21 -44 15
-51 13 -20 -4 15 -8 19 -14 10 -14 -33 -1 -41 13 -29 50 7 19 20 45 29 59 9
14 19 31 21 38 3 10 11 8 31 -7 41 -32 57 -25 18 9 -30 25 -32 29 -15 30 11 1
14 4 8 7 -18 7 -17 13 14 79 15 33 28 64 28 69 1 6 6 9 13 7 12 -2 72 115 72
141 0 8 3 8 9 -2 10 -16 36 56 47 129 4 25 11 52 16 60 7 11 8 9 5 -7 -3 -13
-1 -26 4 -29 14 -9 10 164 -6 246 -23 116 -40 165 -60 168 -12 3 -15 0 -9 -10z
m-318 -1661 c2 -15 8 -28 13 -28 19 -3 24 -5 37 -13 20 -12 31 -49 21 -67 -5
-9 -10 -34 -12 -55 -2 -35 -5 -39 -30 -39 -15 1 -27 -3 -27 -9 0 -5 -9 -1 -20
9 -21 19 -26 50 -10 60 6 4 7 11 4 17 -4 7 -2 8 4 4 7 -4 12 -3 12 2 0 14 37
21 48 10 5 -5 14 -2 23 8 13 16 11 17 -26 12 -22 -3 -48 -9 -57 -13 -13 -5
-18 -2 -18 8 0 17 21 27 55 27 13 0 27 5 31 11 7 11 -13 9 -68 -7 -20 -6 -23
10 -12 65 8 37 28 36 32 -2z"/>
<path d="M6258 5393 c-2 -48 -4 -603 -6 -1233 -3 -1042 -5 -1146 -20 -1157
-14 -12 -14 -13 1 -13 11 0 17 -8 17 -22 0 -24 10 -19 15 9 2 10 4 18 4 18 5
0 3 2476 -1 2481 -4 3 -8 -34 -10 -83z"/>
<path d="M6535 4882 c-35 -22 -74 -70 -111 -139 -37 -69 -31 -130 20 -200 21
-29 42 -53 46 -53 5 0 23 -13 40 -28 l30 -28 -15 -130 c-8 -71 -15 -187 -15
-259 1 -127 4 -166 33 -347 11 -73 11 -86 0 -77 -10 9 -13 6 -13 -12 -1 -21
-2 -22 -11 -7 -5 9 -15 15 -22 12 -20 -7 -55 108 -68 221 -6 55 -14 125 -19
155 -16 98 0 -154 17 -280 9 -63 17 -151 18 -195 5 -133 4 -131 14 -116 5 7
14 10 20 7 6 -4 9 -11 6 -16 -3 -5 3 -13 12 -19 10 -6 12 -11 6 -11 -19 0 -16
-41 5 -64 24 -28 45 -92 37 -116 -9 -28 -38 -33 -84 -13 -27 12 -44 26 -48 41
-4 19 -8 21 -15 10 -6 -9 -11 -9 -14 -2 -3 6 -11 20 -19 30 -14 18 -14 18 -15
-4 0 -13 -11 -38 -24 -55 -24 -32 -23 -66 3 -82 21 -12 10 -40 -24 -64 -20
-13 -33 -26 -30 -29 2 -3 23 7 46 22 22 15 47 25 55 22 8 -3 14 -1 14 4 0 6
11 10 25 10 26 0 99 -60 136 -111 l20 -28 -27 -43 c-14 -24 -43 -58 -63 -75
-24 -22 -29 -31 -16 -27 15 4 11 -3 -13 -26 -19 -17 -31 -34 -28 -38 11 -11
83 68 121 134 21 35 41 61 46 58 24 -14 2 19 -66 101 -41 49 -75 92 -75 96 0
14 26 27 53 27 15 0 36 7 47 17 19 17 20 16 31 -9 7 -14 16 -26 21 -26 4 0 8
-12 8 -27 0 -14 8 -35 17 -45 15 -17 15 -20 -12 -48 l-28 -29 42 -40 c24 -23
48 -41 54 -42 7 -1 27 -2 45 -4 33 -3 71 -25 44 -25 -16 0 -34 -14 -92 -70
-54 -54 -75 -120 -75 -237 0 -40 -3 -73 -7 -73 -8 0 -6 -2 -92 106 -72 91
-129 135 -134 106 -2 -9 -12 -26 -22 -37 -13 -14 -19 -42 -22 -97 -3 -43 -1
-75 4 -72 13 8 10 -10 -4 -25 -11 -10 -9 -12 7 -9 11 1 20 -1 21 -7 0 -5 4
-18 9 -29 13 -30 -8 -51 -49 -50 -20 1 -36 0 -36 -1 0 -2 33 -14 73 -29 40
-14 146 -36 242 -50 248 -37 257 -37 290 -27 29 9 28 9 -16 10 -25 1 -70 5
-100 11 -30 5 -112 19 -184 29 -71 11 -154 25 -183 32 l-54 11 42 39 c23 21
47 39 54 39 15 0 14 101 -2 140 -25 64 17 37 89 -57 36 -46 44 -52 70 -46 22
4 30 1 36 -13 3 -11 15 -30 26 -44 11 -14 17 -18 14 -10 -3 8 -13 38 -23 66
-16 50 -16 52 5 73 28 28 31 27 31 -14 0 -47 37 -120 69 -136 14 -7 29 -15 33
-17 4 -2 -10 14 -31 35 -22 21 -44 56 -50 78 -14 51 -6 57 13 11 8 -20 22 -36
30 -36 9 0 16 -6 16 -13 0 -22 70 -77 98 -77 38 0 92 22 92 38 0 7 -5 10 -11
7 -15 -10 -57 32 -69 72 -13 39 -4 92 19 111 9 7 10 11 4 7 -7 -3 -13 -4 -13
0 0 11 56 28 90 26 24 -1 46 -12 69 -34 23 -21 32 -26 28 -14 -4 10 -7 23 -7
27 0 5 -15 16 -34 25 -26 13 -48 15 -91 10 -55 -7 -58 -9 -76 -49 -25 -55 -24
-83 6 -141 13 -27 23 -50 22 -52 -6 -5 -82 19 -96 31 -8 6 -22 28 -32 50 -13
30 -18 35 -22 20 -3 -11 -5 -2 -6 19 -1 29 3 37 17 37 11 0 25 19 40 54 31 71
57 94 112 99 l45 4 -49 1 c-35 1 -59 -4 -83 -20 -35 -21 -35 -21 -24 0 7 14
29 25 66 33 51 11 57 10 105 -13 49 -24 62 -24 38 0 -9 9 -9 12 0 12 7 0 21
-15 32 -32 17 -28 20 -30 20 -12 0 31 -66 87 -93 79 -18 -5 -19 -4 -7 4 13 10
13 12 0 21 -18 12 -31 12 -87 1 -42 -8 -123 -72 -123 -97 0 -7 -5 -14 -11 -16
-7 -2 -20 -24 -29 -48 -15 -38 -22 -45 -44 -43 -27 2 -36 -11 -13 -20 7 -3 5
-6 -5 -6 -26 -1 -22 15 21 96 28 53 33 70 20 62 -10 -5 -25 -19 -33 -31 -28
-40 -17 -10 20 53 29 49 45 65 81 81 41 18 52 19 124 9 90 -14 128 -30 184
-80 40 -35 60 -61 35 -46 -10 6 -11 4 -5 -11 37 -87 1 -273 -62 -321 -68 -52
-138 -64 -233 -39 -45 12 -52 12 -36 1 19 -14 101 -35 138 -35 40 0 100 24
126 50 95 94 107 125 99 263 -4 80 -9 105 -26 128 -28 38 -21 36 36 -8 45 -34
218 -123 240 -123 6 0 16 6 22 13 9 11 0 16 -44 26 -30 7 -55 17 -55 22 0 5
-6 9 -13 9 -6 0 -48 19 -92 41 -143 74 -346 302 -448 505 -26 49 -51 115 -58
145 -6 30 -18 60 -27 66 -13 10 -13 17 -4 38 11 23 9 27 -11 35 -12 5 -17 9
-12 10 6 0 6 3 0 8 -17 11 -56 120 -76 212 -34 158 -41 455 -14 633 7 45 9 48
31 43 34 -9 30 9 -6 31 -33 19 -79 101 -85 150 -7 50 24 118 85 191 l59 71
-32 7 c-17 3 -36 13 -42 20 -8 12 -15 11 -40 -4z"/>
<path d="M7683 4786 c-130 -49 -276 -167 -365 -298 -122 -181 -183 -426 -158
-639 29 -255 136 -464 307 -604 59 -49 194 -120 248 -130 17 -3 2 5 -32 18
-98 38 -170 86 -253 167 -125 123 -206 276 -244 463 -18 84 -22 297 -6 297 5
0 7 -6 4 -14 -7 -18 22 -235 41 -311 33 -127 97 -237 204 -348 86 -90 181
-158 256 -185 257 -90 508 -32 710 164 112 109 161 176 156 213 -2 18 1 22 12
18 12 -4 17 9 25 65 6 39 16 74 23 78 8 6 13 58 15 171 3 175 -4 223 -50 367
-14 46 -26 93 -26 105 -1 53 -70 160 -97 150 -8 -3 -16 2 -20 13 -3 11 -28 37
-56 59 -199 155 -295 196 -455 196 -53 0 -116 -3 -140 -7 -32 -5 -43 -4 -38 5
9 14 13 15 -61 -13z m415 -28 c101 -36 173 -82 245 -155 70 -71 83 -96 62
-117 -12 -12 -12 -16 5 -31 10 -9 24 -14 30 -10 9 5 10 1 5 -16 -5 -13 -8 -37
-8 -54 0 -16 -2 -22 -4 -12 -6 23 -23 22 -23 -3 0 -10 8 -24 18 -30 13 -8 14
-13 4 -17 -10 -4 -9 -9 4 -25 16 -16 16 -21 4 -28 -8 -5 -12 -12 -8 -15 3 -4
2 -20 -2 -35 -6 -21 -5 -29 3 -27 7 1 11 -4 10 -10 -2 -7 2 -13 7 -13 14 0 12
-27 -2 -33 -10 -4 -10 -7 0 -18 10 -11 12 -11 12 1 0 11 3 11 12 2 9 -9 8 -15
-8 -28 -10 -8 -13 -13 -6 -9 14 7 15 4 6 -19 -5 -14 -8 -14 -21 -1 -17 17 -37
10 -29 -11 3 -7 -1 -20 -8 -27 -8 -7 -12 -27 -10 -43 2 -16 1 -21 -2 -11 -3 9
-9 17 -13 17 -4 0 -9 24 -9 53 -1 28 -5 76 -8 105 -5 39 -3 52 7 52 7 0 9 3 6
7 -4 3 -2 12 4 19 14 17 1 84 -17 84 -8 0 -17 13 -20 30 -4 16 -13 35 -20 41
-8 6 -14 17 -14 24 0 7 -13 18 -30 23 -21 8 -28 15 -24 27 5 11 2 14 -10 9
-11 -4 -16 -1 -16 10 0 9 -4 16 -9 16 -5 0 -27 17 -49 38 -22 20 -53 45 -68
54 -16 9 -33 29 -38 45 -5 15 -14 31 -20 35 -17 11 -58 10 -51 -2 3 -5 1 -10
-4 -10 -6 0 -11 5 -11 10 0 6 -5 10 -11 10 -5 0 -7 -5 -3 -11 5 -8 -9 -9 -47
-3 -172 26 -334 -35 -460 -175 -65 -71 -107 -144 -143 -251 -14 -41 -30 -74
-36 -72 -5 1 -10 -5 -10 -13 0 -18 -12 -19 -28 -3 -9 9 -12 9 -12 -2 0 -7 -2
-11 -5 -8 -10 9 23 153 50 221 76 188 249 363 412 414 40 13 50 19 36 24 -10
3 54 5 142 5 145 -2 167 -5 233 -28z m-198 -143 c-7 -8 -16 -12 -21 -9 -5 3
-9 -5 -9 -16 0 -22 -14 -23 -64 -4 -34 13 -14 -12 27 -34 106 -57 183 -164
219 -304 18 -71 20 -101 15 -203 -7 -135 -27 -213 -83 -312 -70 -126 -193
-213 -301 -213 -29 0 -53 5 -53 10 0 6 -6 10 -14 10 -8 0 -23 14 -33 30 -9 17
-21 30 -25 30 -5 0 -13 10 -19 23 -5 12 -21 40 -34 62 -14 22 -30 52 -36 67
-6 14 -16 29 -24 32 -9 3 -11 13 -7 28 5 20 4 21 -11 10 -29 -24 -50 -1 -54
59 -5 77 -5 78 -20 84 -10 3 -13 14 -8 35 4 18 2 30 -3 30 -6 0 -8 8 -5 19 3
10 0 22 -6 25 -27 17 1 143 55 254 41 83 130 184 205 232 71 46 151 69 243 69
68 1 77 -1 66 -14z m220 -240 c6 3 10 0 10 -9 0 -8 3 -22 6 -30 5 -12 2 -15
-10 -10 -19 7 -21 -2 -3 -21 29 -34 37 -45 37 -55 0 -6 -4 -8 -10 -5 -15 9
-12 0 11 -39 11 -19 18 -40 14 -46 -3 -5 -2 -10 3 -10 5 0 9 -28 9 -63 0 -35
5 -72 12 -83 11 -16 12 -16 7 -1 -3 11 -2 15 4 12 6 -3 10 -15 10 -26 0 -25
26 -76 42 -81 19 -7 -11 -123 -55 -212 -46 -91 -135 -187 -219 -234 -52 -29
-75 -33 -112 -17 -12 5 -21 3 -27 -6 -6 -10 -11 -11 -16 -3 -11 15 -58 30 -49
15 5 -7 1 -9 -8 -5 -9 3 -16 10 -16 15 0 4 -6 6 -12 4 -13 -5 -46 11 -38 17 3
2 39 21 81 41 135 65 225 186 274 368 42 156 32 319 -26 448 -16 35 -28 65
-27 66 33 24 44 24 71 -6 15 -16 32 -27 37 -24z m146 -741 c-4 -10 1 -23 11
-31 17 -14 17 -14 0 -9 -14 5 -17 2 -13 -12 5 -14 1 -17 -21 -16 -34 1 -55
-16 -41 -33 8 -10 6 -13 -6 -13 -10 0 -14 -5 -11 -10 3 -6 -1 -13 -9 -16 -9
-3 -13 -10 -10 -16 3 -5 12 -1 19 9 7 10 17 15 21 11 4 -5 -1 -17 -11 -28 -18
-20 -17 -20 8 -20 26 0 53 -30 40 -44 -3 -3 -1 -6 5 -6 6 0 12 -12 14 -27 2
-22 8 -28 28 -29 14 -1 30 -2 35 -3 16 -2 -55 -59 -121 -97 -115 -64 -307 -94
-390 -59 -19 8 -35 14 -37 14 -13 -2 -57 15 -57 23 0 5 4 6 10 3 6 -4 7 1 3
11 -5 14 -3 16 12 10 11 -4 25 0 38 11 11 10 17 12 13 6 -8 -14 -5 -14 72 -17
27 -2 41 2 37 8 -3 6 -8 19 -11 29 -4 9 -10 17 -15 17 -19 0 -8 36 14 45 12 6
23 20 25 31 2 16 20 28 72 48 38 15 87 41 110 57 24 17 48 28 57 25 10 -4 13
-2 10 8 -3 8 5 24 18 36 13 13 36 40 51 61 28 41 40 50 30 23z"/>
<path d="M4050 4751 c0 -7 -7 -11 -14 -8 -11 4 -13 1 -9 -10 5 -13 1 -15 -20
-11 -29 6 -37 -9 -12 -18 8 -4 12 -10 9 -16 -3 -5 2 -15 12 -23 18 -13 18 -14
-1 -10 -11 2 -26 4 -33 4 -8 1 -11 8 -8 19 5 14 1 18 -19 18 -14 0 -25 -5 -25
-10 0 -6 -18 -26 -40 -44 -22 -18 -40 -29 -40 -23 0 5 5 13 10 16 6 3 9 14 9
23 -1 14 -2 14 -6 -2 -4 -15 -7 -16 -14 -5 -7 11 -9 10 -9 -4 0 -10 -4 -16
-10 -12 -5 3 -6 13 -3 22 5 11 3 14 -6 8 -9 -5 -11 -19 -6 -41 5 -29 4 -33
-12 -27 -10 3 -23 10 -30 15 -7 6 -18 8 -25 5 -8 -4 -5 -8 10 -12 16 -6 22
-15 22 -37 0 -17 -4 -27 -10 -23 -6 4 -8 11 -5 16 4 5 1 9 -4 9 -6 0 -11 -7
-11 -15 0 -9 -10 -15 -26 -15 -22 0 -24 -3 -19 -22 3 -13 3 -18 -2 -12 -14 19
-51 23 -57 7 -9 -23 -7 -26 12 -18 14 5 15 4 4 -6 -9 -10 -15 -10 -24 -1 -8 8
-17 8 -32 0 -21 -11 -21 -10 -3 10 18 20 18 20 -18 19 -25 -1 -34 -5 -31 -14
3 -7 1 -13 -4 -13 -6 0 -10 5 -10 10 0 16 -47 12 -64 -6 -9 -8 -16 -19 -16
-23 0 -4 -10 -7 -22 -8 -13 0 -17 1 -10 4 13 5 17 33 4 33 -5 0 -15 -11 -22
-25 -17 -32 -24 -26 -10 9 8 21 7 27 -2 24 -7 -3 -13 -10 -13 -15 0 -6 -3 -15
-7 -19 -5 -4 -8 -16 -8 -27 0 -20 -1 -20 -24 2 l-23 22 4 -25 c3 -15 9 -26 15
-26 5 0 4 -10 -3 -21 -9 -17 -8 -24 2 -31 11 -7 11 -11 2 -15 -18 -7 -16 -36
1 -30 12 5 13 1 7 -16 -7 -18 -15 -21 -46 -19 -34 3 -37 1 -32 -18 3 -11 1
-23 -4 -26 -15 -9 -10 -22 12 -29 16 -5 18 -9 8 -21 -9 -11 -9 -18 -1 -26 7
-7 12 -16 12 -22 0 -5 -3 -6 -7 -3 -3 4 -13 1 -22 -7 -22 -20 -51 0 -51 34 0
11 -59 2 -77 -13 -7 -5 -11 -13 -8 -17 2 -4 -2 -16 -10 -26 -14 -18 -15 -18
-21 4 -3 12 -11 22 -16 22 -5 0 -6 5 -3 10 3 6 2 10 -4 10 -5 0 -13 -4 -16
-10 -3 -5 -1 -10 5 -10 7 0 9 -8 5 -21 -5 -15 -2 -22 12 -25 22 -6 47 -41 34
-48 -5 -3 -1 -26 8 -51 16 -46 16 -46 -9 -65 -14 -11 -33 -20 -42 -20 -10 0
-18 -4 -18 -10 0 -5 7 -10 15 -10 9 0 12 -6 9 -15 -4 -10 0 -15 11 -15 13 0
16 6 11 25 -5 19 -3 23 9 19 8 -4 15 -10 15 -15 0 -5 6 -9 14 -9 17 0 30 -30
13 -30 -7 0 0 -11 14 -23 14 -13 28 -31 32 -40 3 -9 11 -17 17 -17 5 0 10 -4
10 -10 0 -18 -48 -11 -52 7 -3 15 -4 15 -20 0 -14 -14 -18 -15 -25 -4 -21 37
-92 44 -77 8 3 -9 10 -30 15 -47 8 -28 14 -32 39 -30 43 3 61 -11 26 -20 -19
-5 -31 -2 -37 7 -5 8 -9 9 -9 4 0 -20 24 -35 58 -35 48 0 69 15 76 54 4 19 14
37 23 40 13 5 14 4 3 -9 -9 -10 -10 -32 -6 -72 10 -83 14 -91 46 -98 35 -8 37
-14 10 -48 -19 -24 -20 -26 -3 -37 13 -8 13 -10 2 -7 -8 3 -26 -1 -40 -9 -32
-18 -42 -17 -35 1 5 14 -9 20 -40 16 -7 -1 -15 15 -18 34 -7 36 -41 62 -60 45
-12 -12 4 -32 21 -26 8 4 11 1 8 -5 -4 -6 -13 -8 -21 -5 -21 8 -17 -3 9 -25
12 -10 15 -17 7 -14 -9 3 -21 -4 -29 -17 -13 -21 -13 -22 2 -9 15 12 17 11 17
-8 0 -11 5 -21 10 -21 16 0 11 -40 -6 -47 -8 -3 -13 -12 -10 -20 3 -8 1 -11
-4 -8 -6 4 -9 -9 -7 -33 2 -30 0 -39 -10 -35 -8 3 -20 -3 -28 -13 -13 -17 -14
-17 -15 -2 0 22 -19 33 -33 19 -8 -8 -8 -11 1 -11 7 0 12 -9 12 -20 0 -12 7
-20 16 -20 24 0 48 -29 61 -74 11 -37 11 -44 -7 -68 -24 -33 -18 -97 7 -77 8
7 12 17 9 24 -2 6 5 17 16 24 11 7 17 19 14 27 -3 8 -1 14 5 14 5 0 12 -7 16
-16 3 -8 12 -13 19 -10 10 4 11 0 2 -20 -14 -30 -4 -42 17 -20 22 21 15 50
-13 54 -21 3 -26 12 -23 40 1 7 -6 12 -16 10 -10 -2 -19 4 -21 15 -2 10 3 17
12 17 9 0 15 3 15 8 -4 25 4 51 22 70 18 20 18 49 -1 37 -11 -7 -33 22 -26 34
3 5 2 21 -4 35 -7 21 -6 26 5 26 8 0 15 7 15 15 0 8 -4 15 -10 15 -5 0 -10 5
-10 10 0 6 8 5 20 -2 21 -13 28 -48 10 -48 -5 0 -10 -6 -10 -13 0 -8 15 -14
37 -15 40 -3 56 -12 36 -19 -27 -10 -11 -23 30 -24 23 -1 33 -3 22 -6 -28 -7
-36 -16 -40 -51 -3 -22 1 -31 14 -35 18 -4 36 -47 20 -47 -5 0 -9 7 -9 15 0
18 -5 18 -30 5 -16 -9 -17 -13 -5 -47 7 -20 18 -39 24 -41 6 -2 9 -8 5 -13 -3
-5 0 -9 6 -9 7 0 10 -7 6 -15 -3 -9 0 -15 8 -15 7 0 21 -9 31 -20 10 -11 13
-20 7 -20 -7 0 -12 -7 -12 -15 0 -8 7 -15 16 -15 12 0 14 -4 7 -12 -6 -7 -10
-21 -10 -31 0 -15 4 -14 22 7 26 30 37 32 55 11 7 -8 18 -15 24 -14 7 0 6 2
-1 6 -7 2 -13 11 -13 19 0 9 -5 12 -10 9 -6 -4 -9 -1 -8 6 2 6 -3 14 -11 17
-8 2 -11 0 -7 -6 3 -5 -1 -12 -9 -16 -16 -6 -29 9 -20 23 3 5 1 12 -5 16 -6 4
-7 11 -4 17 5 7 2 8 -6 3 -9 -5 -11 -4 -6 4 10 15 31 9 31 -10 0 -10 14 -14
55 -14 48 0 56 4 67 25 7 14 13 23 13 20 7 -41 5 -88 -2 -84 -5 3 -7 12 -4 20
7 18 -2 18 -20 -1 -13 -12 -12 -15 6 -25 24 -13 44 -4 36 15 -3 8 1 18 7 23 9
8 12 0 12 -29 0 -21 -3 -39 -7 -39 -5 0 -8 -7 -8 -15 0 -12 5 -13 25 -3 19 9
22 14 15 29 -11 20 0 32 19 19 8 -4 10 -13 6 -20 -6 -9 -3 -9 14 -1 24 13 29
33 6 25 -9 -4 -15 0 -15 10 0 9 7 16 15 16 8 0 15 5 15 10 0 6 5 10 11 10 5 0
7 -4 4 -10 -3 -5 0 -7 9 -4 8 3 17 12 20 20 7 18 36 18 36 0 0 -8 11 -27 24
-41 14 -15 22 -33 19 -41 -3 -8 -2 -14 2 -14 14 0 45 21 45 31 0 6 -4 8 -9 5
-17 -11 -39 5 -50 34 -12 35 9 33 24 -3 8 -16 17 -21 38 -19 15 2 27 -1 27 -8
0 -6 10 -1 22 10 18 16 20 23 10 29 -11 7 -10 10 3 15 9 3 14 10 10 15 -3 5 6
21 19 36 17 18 26 22 30 13 5 -10 7 -10 12 0 8 18 24 15 24 -5 0 -14 2 -15 9
-4 6 10 16 11 36 4 27 -9 27 -9 9 -27 -18 -18 -17 -18 6 -11 14 4 35 17 48 28
l22 20 1 -24 0 -24 9 23 c5 12 14 22 19 22 13 0 25 39 23 70 -2 23 -1 24 11 8
22 -28 29 -22 26 22 -2 22 1 40 6 40 6 0 10 -4 10 -9 0 -18 12 -21 25 -6 19
22 43 19 37 -5 -3 -11 -1 -20 4 -20 6 0 9 -7 7 -16 -4 -25 19 -28 27 -5 3 12
10 21 15 21 5 0 7 -7 4 -15 -5 -11 1 -14 22 -13 16 1 33 7 37 13 6 7 10 6 14
-2 2 -7 11 -13 20 -13 14 0 13 8 -3 55 -2 6 1 17 6 25 9 13 11 13 21 0 8 -12
9 -10 4 9 -6 19 -4 23 7 18 8 -3 21 -1 28 3 8 5 21 5 30 0 11 -6 24 -4 38 6
12 8 27 12 33 9 6 -4 17 1 24 11 9 12 14 14 15 6 0 -7 5 -10 10 -7 6 3 10 26
10 50 0 29 5 45 15 49 8 3 15 13 15 21 0 9 5 13 10 10 6 -4 7 -12 3 -18 -4 -7
0 -6 10 2 9 7 14 18 10 24 -4 7 0 8 12 3 15 -5 16 -4 5 9 -10 12 -9 16 3 21 9
3 17 13 18 22 5 38 -2 286 -11 406 -5 72 -10 181 -10 243 0 76 -4 113 -11 113
-7 0 -9 12 -5 34 5 25 2 39 -11 51 -16 16 -17 16 -25 -5 -7 -20 -28 -20 -28 1
0 6 4 8 9 5 5 -4 7 3 4 15 -4 14 -9 17 -16 10 -14 -14 -30 -14 -22 -1 3 6 2
10 -4 10 -5 0 -15 -8 -21 -17 -10 -15 -11 -14 -7 9 3 19 0 25 -10 21 -8 -3
-13 -2 -12 3 1 5 -3 22 -9 37 -7 16 -12 33 -12 38 0 12 -11 11 -30 -1 -12 -8
-12 -10 5 -10 18 0 18 -1 3 -16 -12 -12 -20 -14 -34 -5 -11 6 -13 11 -6 11 6
0 12 7 12 15 0 15 -24 16 -48 2 -7 -5 -14 -2 -18 7 -3 8 -11 13 -18 10 -10 -4
-12 6 -9 37 3 31 1 40 -9 37 -7 -3 -13 -11 -13 -19 -1 -24 -21 -53 -29 -40 -4
6 -2 11 3 11 14 0 14 36 0 61 -10 20 -11 20 -45 -6 -19 -14 -34 -22 -34 -16 0
5 6 12 13 14 9 4 8 8 -3 16 -10 7 -11 11 -2 11 6 0 12 5 12 10 0 6 -9 10 -20
10 -13 0 -18 5 -14 15 4 10 -1 13 -23 12 -24 -2 -28 2 -31 26 -2 15 -8 27 -14
27 -6 0 -9 -13 -6 -32 8 -53 2 -58 -45 -40 -23 9 -51 22 -62 29 -19 13 -19 13
2 13 13 0 21 5 19 13 -1 6 -1 9 1 5 3 -5 11 -8 18 -8 8 0 11 -7 8 -20 -3 -11
0 -20 6 -20 10 0 12 6 10 27 0 4 8 10 18 14 14 6 15 8 2 8 -18 1 -58 41 -41
41 6 0 14 -4 17 -10 10 -15 46 25 39 43 -8 21 -34 10 -27 -11 4 -13 3 -13 -9
2 -13 17 -15 17 -21 3 -3 -9 -13 -14 -21 -11 -13 5 -33 -29 -28 -48 1 -5 -2
-8 -7 -8 -5 0 -8 11 -8 25 0 15 4 22 11 18 6 -3 8 -3 4 2 -4 4 -3 14 4 22 6 7
8 16 4 20 -3 3 -6 1 -6 -6z m-365 -1061 c-3 -5 0 -10 9 -10 8 0 13 -7 12 -16
-1 -9 8 -28 21 -42 13 -14 23 -31 23 -39 0 -8 5 -11 10 -8 14 9 12 -18 -2 -34
-9 -10 -10 -12 -1 -7 17 9 35 -29 27 -59 -7 -28 -6 -27 -28 -19 -9 3 -13 10
-10 15 3 5 -2 9 -11 9 -8 0 -18 6 -21 14 -3 8 -17 17 -32 21 -24 6 -25 8 -9
16 17 10 15 29 -3 29 -15 0 -33 -96 -21 -118 13 -23 3 -62 -15 -62 -8 0 -14 6
-14 13 0 7 -7 4 -15 -7 -13 -17 -15 -18 -15 -3 0 22 -17 22 -24 0 -3 -11 -4
-7 -3 7 1 15 -3 24 -10 23 -14 -3 -15 1 -18 69 -1 31 3 49 12 52 16 7 17 -6 1
-22 -9 -9 -9 -15 -1 -23 8 -8 17 0 33 30 11 23 32 47 45 53 25 11 33 32 17 42
-14 8 -7 44 13 66 18 20 41 28 30 10z m-22 -373 c5 -15 5 -35 1 -45 -5 -9 -8
-30 -9 -46 0 -31 -6 -33 -107 -37 -19 -1 -28 -7 -28 -18 0 -14 -2 -14 -10 -1
-9 13 -12 13 -24 -2 -7 -10 -23 -18 -35 -18 -11 0 -20 -6 -18 -12 1 -7 -6 -12
-15 -10 -11 2 -18 -3 -18 -13 0 -8 4 -15 9 -15 17 0 22 -34 7 -46 -9 -6 -12
-15 -8 -19 4 -4 0 -6 -8 -3 -8 3 -14 14 -13 26 2 16 -2 19 -18 15 -20 -6 -20
-5 -5 31 11 26 12 36 3 36 -8 0 -7 3 2 9 8 5 21 7 30 3 14 -5 14 -3 -1 14 -12
14 -14 23 -7 34 9 12 10 11 5 -4 -7 -20 -7 -20 16 0 13 10 25 21 28 24 3 3 22
14 44 25 21 11 43 27 49 37 6 9 16 14 23 11 7 -2 27 9 46 26 38 35 48 35 61
-2z"/>
<path d="M7187 2575 c-7 -83 -43 -177 -91 -240 -13 -17 -25 -39 -27 -50 -3
-14 -13 -20 -34 -21 -17 -1 -38 -2 -48 -3 -11 -1 -17 -7 -15 -17 2 -8 8 -14
13 -12 6 2 9 5 8 8 -1 3 150 5 335 6 260 0 369 4 476 18 141 18 455 79 491 95
11 5 27 12 35 15 23 9 -19 2 -238 -43 -112 -23 -236 -44 -275 -46 -40 -2 -157
-9 -262 -15 -104 -7 -253 -10 -330 -8 -163 4 -169 8 -107 79 22 24 47 59 56
77 20 39 33 140 26 197 -5 34 -7 28 -13 -40z"/>
</g>
</svg>
